<?xml version="1.0" standalone="no"?>
<!DOCTYPE svg PUBLIC "-//W3C//DTD SVG 20010904//EN"
 "http://www.w3.org/TR/2001/REC-SVG-20010904/DTD/svg10.dtd">
<svg version="1.0" xmlns="http://www.w3.org/2000/svg"
 width="1021.000000pt" height="550.000000pt" viewBox="0 0 1021.000000 550.000000"
 preserveAspectRatio="xMidYMid meet">

<g transform="translate(0.000000,550.000000) scale(0.100000,-0.100000)"
fill="#000000" stroke="none">
<path d="M2437 5428 c-14 -40 -33 -100 -42 -132 -9 -33 -27 -80 -40 -105 -13
-25 -35 -72 -49 -105 -22 -50 -28 -57 -41 -46 -9 7 -27 10 -44 7 -15 -3 -33
-1 -38 4 -8 8 -17 7 -31 0 -27 -14 -28 -14 -47 6 -13 13 -21 14 -35 5 -24 -15
-56 8 -47 32 6 14 3 16 -14 11 -11 -4 -26 -1 -34 5 -16 13 -35 5 -35 -14 0 -8
-7 -19 -16 -27 -13 -10 -20 -10 -36 0 -14 9 -23 9 -33 1 -9 -7 -38 -9 -82 -5
-79 6 -286 16 -390 19 -39 0 -74 4 -78 8 -4 4 -18 2 -32 -5 -19 -8 -26 -8 -33
3 -7 11 -14 11 -33 3 -17 -8 -28 -8 -35 -1 -6 6 -20 7 -33 2 -13 -5 -44 -7
-69 -5 -51 3 -77 18 -60 35 20 20 9 29 -30 23 -27 -3 -43 -1 -51 9 -16 20 -8
25 53 34 l53 8 -73 1 c-66 1 -72 -1 -64 -16 5 -10 7 -32 5 -50 -6 -35 -2 -34
-118 -33 -33 0 -71 0 -84 0 -13 0 -30 5 -37 11 -10 8 -18 8 -27 1 -15 -13 -83
-15 -151 -6 -37 5 -44 9 -32 16 9 5 25 7 35 3 21 -6 38 10 21 20 -6 4 -26 8
-45 10 -34 3 -34 3 -46 -54 -7 -31 -13 -96 -13 -144 -1 -83 1 -90 24 -109 65
-51 116 -96 143 -125 17 -18 34 -33 39 -33 5 0 34 -19 65 -42 30 -24 67 -49
82 -57 14 -8 49 -33 76 -56 28 -23 66 -50 85 -60 19 -10 53 -32 75 -50 23 -18
57 -40 75 -49 19 -9 44 -22 55 -29 11 -7 36 -23 55 -35 19 -12 45 -22 57 -22
12 0 30 -11 40 -24 11 -13 37 -29 58 -35 37 -10 42 -8 84 24 24 19 50 35 57
35 7 0 17 6 21 13 13 20 118 87 136 87 10 0 25 9 34 20 10 11 21 20 26 20 5 0
28 13 52 30 24 16 54 34 67 40 25 11 35 17 111 68 27 17 55 32 63 32 8 0 14 5
14 10 0 6 8 14 18 17 9 4 39 22 66 40 26 18 54 33 62 33 23 0 16 18 -8 23 -14
3 -10 4 10 4 37 -1 38 -4 17 -53 -8 -20 -12 -41 -8 -48 17 -25 33 -83 33 -116
0 -19 -28 -114 -61 -210 -34 -96 -71 -202 -82 -235 -11 -33 -40 -118 -64 -190
-25 -71 -51 -150 -60 -175 -17 -53 -70 -194 -86 -232 -10 -24 -52 -46 -64 -34
-9 8 13 61 25 62 7 1 18 2 26 3 8 0 16 8 20 16 4 12 0 14 -21 9 -24 -7 -26 -5
-20 22 11 57 26 84 46 84 18 0 61 43 61 61 0 5 -11 3 -25 -3 -27 -12 -35 -34
-9 -24 8 3 13 2 10 -3 -3 -5 -15 -11 -26 -14 -15 -4 -20 0 -20 13 0 11 4 21 9
24 5 3 15 35 22 71 7 36 16 65 21 65 4 0 8 5 8 11 0 5 -4 7 -10 4 -5 -3 -10 1
-10 10 0 11 5 15 15 12 8 -4 17 -1 21 5 4 7 3 8 -4 4 -14 -9 -16 13 -2 34 7
11 3 18 -13 27 -12 7 -29 12 -39 13 -11 0 -15 6 -11 19 6 24 -29 46 -54 33
-26 -13 -111 -3 -117 14 -5 12 31 45 79 70 12 6 44 8 78 4 46 -5 63 -12 84
-34 20 -22 28 -25 35 -14 13 17 0 -88 -13 -116 -8 -16 -6 -15 10 4 16 20 21
40 21 94 0 49 9 95 30 160 16 50 46 143 66 206 20 63 46 137 57 163 11 26 17
50 14 54 -3 3 -43 -19 -89 -49 -110 -73 -186 -118 -197 -118 -5 0 -11 -7 -15
-15 -3 -8 -14 -15 -24 -15 -10 0 -47 -19 -81 -42 -82 -57 -113 -76 -131 -84
-8 -4 -38 -24 -67 -45 -29 -22 -56 -39 -61 -39 -5 0 -21 -15 -35 -34 -19 -25
-26 -47 -28 -88 -1 -30 1 -60 5 -67 4 -6 2 -18 -4 -27 -8 -8 -14 -55 -16 -112
-2 -53 -8 -124 -14 -157 -5 -33 -7 -77 -4 -98 3 -21 1 -43 -4 -50 -5 -7 -9
-55 -9 -107 1 -52 -3 -102 -8 -110 -6 -8 -10 -44 -11 -80 -1 -36 -4 -73 -9
-82 -15 -37 0 -46 68 -41 58 4 65 3 79 -19 8 -13 18 -34 22 -48 4 -14 24 -65
44 -114 l36 -89 -22 -86 c-12 -47 -25 -106 -28 -131 -9 -68 -12 -74 -29 -60
-8 6 -18 9 -24 6 -5 -3 -12 1 -15 10 -12 30 -6 44 18 44 34 0 50 23 36 51 -7
12 -7 19 -2 15 6 -4 8 2 5 14 -3 11 -10 20 -15 20 -5 0 -6 -4 -3 -10 3 -5 -1
-10 -9 -10 -8 0 -18 5 -21 10 -5 8 -12 7 -23 -2 -11 -9 -14 -9 -9 -1 6 9 -2
11 -28 9 -29 -2 -41 4 -34 17 1 1 -8 20 -20 42 -11 22 -19 49 -16 60 3 11 2
14 -1 7 -4 -9 -16 -4 -42 16 l-37 29 -25 -24 c-14 -13 -40 -32 -59 -42 -26
-14 -30 -19 -17 -24 9 -4 16 -2 16 2 0 10 74 51 91 51 23 0 68 -41 66 -60 -1
-23 -8 -25 -24 -9 -6 6 -27 12 -45 14 -32 3 -35 2 -30 -21 4 -23 2 -25 -24
-19 -22 5 -25 4 -14 -4 12 -9 11 -11 -8 -11 -13 0 -21 -4 -18 -9 3 -4 -13 -8
-35 -8 -30 0 -39 3 -35 13 3 8 1 14 -4 14 -6 0 -10 -4 -10 -10 0 -19 -56 -66
-102 -85 -27 -10 -48 -25 -48 -33 0 -7 4 -11 9 -8 17 11 41 -6 41 -29 0 -26
-16 -32 -95 -34 -55 -2 -115 -18 -115 -31 0 -4 -8 -10 -18 -14 -9 -3 -31 -14
-48 -25 -17 -10 -45 -22 -62 -26 -18 -3 -32 -12 -32 -20 0 -7 -8 -15 -17 -19
-25 -8 -57 -29 -65 -42 -4 -7 -20 -15 -34 -18 -14 -4 -49 -24 -78 -45 -28 -21
-61 -41 -74 -45 -12 -4 -38 -22 -56 -39 -40 -38 -53 -95 -61 -282 -9 -196 -16
-318 -22 -350 -2 -16 -4 -36 -4 -42 0 -7 1 -57 1 -111 1 -54 -2 -110 -5 -125
-4 -14 -3 -32 2 -39 4 -7 8 -24 8 -38 0 -14 5 -24 10 -24 58 9 253 16 498 19
258 3 297 2 286 -11 -6 -8 -29 -14 -54 -14 -23 0 -44 -3 -48 -6 -3 -3 -160 -7
-348 -8 l-342 -1 -4 -52 c-1 -29 1 -55 6 -58 6 -3 7 -21 4 -40 -4 -23 -2 -35
6 -35 6 0 11 -7 11 -15 0 -15 106 -88 172 -119 20 -10 42 -24 49 -32 6 -8 17
-14 25 -14 7 0 37 -14 66 -32 55 -32 142 -68 168 -68 8 0 26 -9 40 -20 14 -11
32 -20 41 -20 9 0 30 -7 45 -15 16 -8 39 -15 52 -15 12 0 22 -3 22 -8 0 -10
110 -52 138 -52 7 0 31 -12 55 -27 23 -14 42 -25 42 -23 0 8 53 -15 80 -35 22
-16 39 -21 63 -17 17 2 32 8 32 13 0 5 6 9 13 9 8 0 24 11 37 25 13 14 28 25
33 25 5 0 42 25 82 55 41 30 76 55 80 55 3 0 21 10 38 23 18 12 39 27 49 32 9
6 44 29 78 52 34 24 70 43 79 43 9 0 22 9 29 20 7 11 17 20 22 20 6 0 29 13
52 30 22 16 47 30 54 30 7 0 19 8 26 18 23 32 53 32 90 1 31 -26 29 -34 -7
-30 -6 0 -19 -13 -30 -29 -11 -17 -26 -30 -33 -30 -16 0 -54 -21 -68 -39 -6
-8 -16 -11 -21 -8 -6 4 -19 -3 -29 -14 -10 -11 -38 -29 -61 -40 -24 -11 -43
-23 -43 -28 0 -9 -38 -24 -53 -22 -5 1 -11 -8 -14 -19 -3 -11 -14 -20 -24 -20
-11 0 -19 -4 -19 -8 0 -5 -19 -18 -43 -30 -24 -12 -52 -31 -62 -42 -10 -11
-24 -20 -31 -20 -7 0 -23 -13 -37 -30 -14 -16 -37 -32 -51 -36 -14 -3 -26 -10
-26 -16 0 -5 -14 -14 -31 -20 -18 -6 -28 -16 -25 -23 2 -7 -3 -23 -11 -35 -12
-17 -14 -38 -10 -91 4 -42 2 -71 -4 -75 -6 -3 -10 -18 -9 -32 1 -15 1 -29 0
-32 -1 -3 -4 -41 -6 -85 -2 -44 -5 -89 -6 -100 -3 -20 4 -20 436 -23 l438 -2
-6 42 c-6 42 -19 314 -31 648 -3 91 -8 184 -10 208 l-4 43 33 -20 c17 -11 72
-42 121 -70 60 -32 91 -55 92 -68 4 -49 13 -234 18 -371 8 -220 21 -226 18 -8
-3 219 4 316 23 316 7 0 15 4 18 9 4 5 -4 7 -16 3 -15 -3 -19 -2 -14 7 4 6 2
19 -5 27 -11 14 -7 13 26 -2 52 -23 168 -63 225 -77 l45 -12 -4 -337 -4 -338
92 0 c64 0 99 4 114 15 20 13 26 13 51 0 22 -12 75 -15 258 -15 l231 0 -7 48
c-52 397 -145 1315 -186 1842 -11 140 -24 309 -30 375 -10 120 -21 262 -40
535 -6 80 -12 165 -15 190 -2 25 -7 117 -11 205 -3 88 -8 164 -11 168 -9 16
-4 996 7 1212 12 247 35 593 54 793 l12 132 -397 0 -397 0 -25 -72z m236 -538
c117 -154 227 -314 227 -331 0 -25 -24 -31 -130 -35 -176 -7 -309 -28 -437
-69 -22 -7 -22 -5 11 66 33 72 35 74 87 92 30 10 91 24 137 30 50 7 82 16 82
23 0 7 -34 55 -75 108 l-74 95 36 77 c33 70 38 75 50 58 7 -11 46 -62 86 -114z
m-1748 -98 c-2 -29 -7 -38 -24 -40 -19 -3 -20 0 -14 30 14 78 42 85 38 10z
m538 29 c2 -11 1 -23 -4 -28 -6 -6 -7 -17 -3 -27 5 -13 17 -17 48 -15 67 4
126 0 126 -9 0 -10 -194 -7 -210 3 -5 3 -14 3 -20 0 -5 -3 -10 -2 -10 3 0 5 9
12 20 15 18 5 26 27 21 65 -3 20 26 14 32 -7z m542 -60 c-3 -8 0 -18 7 -22 22
-14 -5 -23 -64 -20 -27 1 -41 21 -15 21 6 0 18 4 26 9 12 8 12 13 3 24 -10 12
-9 16 3 21 8 3 15 13 15 23 0 12 5 9 15 -11 9 -16 13 -36 10 -45z m-807 42
c-10 -2 -28 -2 -40 0 -13 2 -5 4 17 4 22 1 32 -1 23 -4z m429 -9 c-3 -3 -12
-4 -19 -1 -8 3 -5 6 6 6 11 1 17 -2 13 -5z m133 -4 c20 -6 21 -8 5 -8 -11 0
-31 4 -45 8 -20 6 -21 8 -5 8 11 0 31 -4 45 -8z m395 -20 c3 -5 2 -10 -4 -10
-5 0 -13 5 -16 10 -3 6 -2 10 4 10 5 0 13 -4 16 -10z m35 0 c0 -5 -4 -10 -10
-10 -5 0 -10 5 -10 10 0 6 5 10 10 10 6 0 10 -4 10 -10z m-1437 -7 c-7 -2 -19
-2 -25 0 -7 3 -2 5 12 5 14 0 19 -2 13 -5z m77 -3 c0 -5 -4 -10 -9 -10 -6 0
-13 5 -16 10 -3 6 1 10 9 10 9 0 16 -4 16 -10z m135 0 c3 -5 -1 -10 -9 -10 -9
0 -16 5 -16 10 0 6 4 10 9 10 6 0 13 -4 16 -10z m104 -5 c2 -3 -17 -5 -43 -5
-26 0 -45 4 -42 9 5 8 76 5 85 -4z m64 -2 c-7 -2 -19 -2 -25 0 -7 3 -2 5 12 5
14 0 19 -2 13 -5z m232 -3 c6 -9 -142 -7 -151 2 -4 5 27 7 70 6 42 0 79 -4 81
-8z m325 -10 c0 -5 -9 -10 -20 -10 -11 0 -20 5 -20 10 0 6 9 10 20 10 11 0 20
-4 20 -10z m140 1 c3 -1 -2 -6 -10 -11 -16 -10 -89 -3 -104 11 -7 6 83 6 114
0z m55 -11 c-28 -12 -45 -12 -45 0 0 6 15 10 33 9 27 0 29 -2 12 -9z m223 -9
c3 -10 0 -12 -12 -8 -10 4 -27 7 -39 8 -21 0 -21 1 -2 9 27 12 47 8 53 -9z
m926 -293 c-1 -198 14 -679 35 -1125 12 -263 6 -338 -46 -491 -48 -146 -180
-448 -346 -792 -30 -63 -80 -176 -110 -250 -78 -193 -158 -360 -172 -360 -7 0
-23 8 -36 18 -39 30 -208 126 -304 174 -49 24 -116 59 -149 77 -32 18 -56 29
-53 24 8 -13 133 -86 292 -170 125 -67 180 -100 235 -142 14 -10 71 -48 128
-82 57 -35 129 -80 160 -100 31 -19 91 -53 132 -74 60 -31 143 -81 169 -101 3
-3 -68 -202 -76 -213 -2 -3 -25 17 -51 43 -54 54 -237 163 -499 298 -286 146
-538 294 -603 353 -14 13 -79 59 -145 103 -147 99 -163 113 -205 180 -31 50
-32 54 -20 95 6 23 24 97 40 165 15 67 34 129 41 138 8 9 22 37 31 63 9 25 17
39 17 30 1 -22 -28 -92 -42 -101 -16 -10 -14 -87 6 -163 14 -53 27 -80 55
-109 36 -37 166 -130 200 -143 15 -6 15 -5 3 10 -21 26 0 91 76 242 70 138
181 381 243 530 97 235 204 486 300 705 108 246 299 622 500 985 112 201 180
336 180 356 0 12 8 29 14 29 1 0 1 -91 0 -202z m-549 -48 c13 -12 29 -36 36
-53 7 -18 13 -33 15 -35 1 -2 52 6 114 18 62 12 114 19 117 17 2 -3 -13 -33
-34 -68 -25 -41 -47 -66 -63 -71 -56 -16 -285 -66 -288 -63 -2 2 4 17 12 34
31 58 14 111 -34 111 -27 0 -33 -7 -70 -79 -29 -59 -37 -82 -27 -88 10 -6 179
-77 295 -124 l22 -9 -35 -69 -35 -70 -82 35 c-46 20 -130 54 -187 77 -57 23
-106 47 -108 55 -3 7 7 41 22 75 15 34 43 100 62 147 59 145 111 194 196 187
31 -3 56 -12 72 -27z m-1005 -532 c0 -10 -7 -18 -15 -18 -15 0 -21 40 -8 53 9
9 23 -13 23 -35z m628 33 c9 -5 58 -26 107 -46 50 -20 99 -40 110 -45 11 -5
46 -20 78 -34 64 -28 63 -16 12 -123 l-20 -42 -87 39 c-49 22 -94 40 -101 40
-11 0 -8 -23 11 -102 18 -71 22 -106 15 -117 -6 -9 -50 -39 -99 -68 l-89 -52
97 -46 97 -46 -26 -62 c-15 -34 -29 -66 -33 -70 -8 -9 -341 149 -352 167 -23
36 57 118 185 189 48 27 87 52 87 56 0 3 -11 60 -25 126 -41 197 -31 269 33
236z m-540 -29 c3 -16 -2 -22 -16 -22 -27 0 -33 9 -19 31 15 24 31 19 35 -9z
m82 -2 c0 -19 -17 -36 -26 -27 -3 2 -2 16 2 31 7 28 24 26 24 -4z m93 1 c3
-12 -1 -22 -11 -26 -23 -9 -36 10 -22 34 12 24 25 21 33 -8z m75 -1 c0 -19 -4
-30 -13 -30 -9 0 -12 9 -10 28 5 34 4 32 13 32 5 0 9 -13 10 -30z m-184 -399
c-4 -9 -6 -26 -5 -38 1 -24 -14 -29 -38 -14 -9 6 -10 11 -2 15 6 4 11 18 11
31 0 23 17 37 33 28 5 -3 5 -12 1 -22z m-170 -13 c9 -35 8 -38 -18 -38 -23 0
-24 2 -13 30 14 36 23 38 31 8z m66 12 c0 -5 -2 -10 -4 -10 -3 0 -8 5 -11 10
-3 6 -1 10 4 10 6 0 11 -4 11 -10z m185 -36 c12 -5 14 -9 4 -14 -15 -10 -41
-1 -33 11 6 11 8 11 29 3z m45 -4 c0 -5 -5 -10 -11 -10 -5 0 -7 5 -4 10 3 6 8
10 11 10 2 0 4 -4 4 -10z m-223 -6 c-3 -3 -12 -4 -19 -1 -8 3 -5 6 6 6 11 1
17 -2 13 -5z m366 -479 c78 -40 146 -79 151 -88 7 -11 -11 -63 -68 -199 -43
-100 -85 -191 -94 -201 -12 -13 -25 -17 -45 -13 -26 5 -30 2 -52 -48 -13 -29
-31 -56 -40 -60 -14 -5 -56 17 -162 85 -46 28 -22 100 58 175 l54 50 -2 170
-1 169 8 -138 c4 -75 11 -148 14 -161 l6 -24 56 30 57 31 34 -19 c31 -16 34
-22 30 -49 -3 -17 -21 -63 -40 -103 -29 -61 -32 -74 -20 -84 11 -9 17 -8 28 3
14 14 165 353 165 370 0 4 -71 44 -157 88 -114 58 -159 77 -165 68 -12 -18
-10 1 3 24 8 17 13 18 25 8 9 -7 79 -45 157 -84z m-598 -133 c-6 -7 -34 11
-29 19 3 5 11 3 19 -4 7 -6 12 -13 10 -15z m50 -12 c3 -6 -1 -7 -9 -4 -18 7
-21 14 -7 14 6 0 13 -4 16 -10z m-251 -121 c3 5 14 8 24 6 9 -2 27 -4 40 -4
15 -1 22 -7 22 -21 0 -24 -40 -36 -68 -21 -23 12 -38 0 -28 -24 9 -25 -13 -26
-29 -2 -20 31 -4 87 19 68 9 -8 17 -8 20 -2z m306 -9 c15 -23 12 -58 -6 -68
-10 -5 -32 -6 -53 -1 -21 5 -40 4 -45 -1 -15 -15 -36 9 -36 41 0 15 7 32 15
37 26 14 115 9 125 -8z m-170 -34 c-14 -14 -24 0 -16 21 6 15 8 15 16 3 6 -9
5 -19 0 -24z m-30 -25 c0 -12 -28 -22 -34 -12 -3 5 -3 11 1 15 9 9 33 7 33 -3z
m187 -503 c-3 -8 -6 -5 -6 6 -1 11 2 17 5 13 3 -3 4 -12 1 -19z m-137 2 c0 -5
-9 -10 -20 -10 -11 0 -20 5 -20 10 0 6 9 10 20 10 11 0 20 -4 20 -10z m-90 -4
c0 -2 -7 -6 -15 -10 -8 -3 -15 -1 -15 4 0 6 7 10 15 10 8 0 15 -2 15 -4z m154
-250 c-3 -9 -10 -16 -15 -16 -5 0 -4 9 3 20 14 22 21 20 12 -4z m-21 -41 c-3
-9 -8 -14 -10 -11 -3 3 -2 9 2 15 9 16 15 13 8 -4z m22 -115 c10 -11 16 -20
13 -20 -3 0 -13 9 -23 20 -10 11 -16 20 -13 20 3 0 13 -9 23 -20z m513 -408
c17 -13 32 -24 32 -25 0 -1 -111 -2 -248 -2 -136 0 -308 -3 -382 -6 -160 -6
-231 4 -204 31 8 8 464 25 679 25 78 0 94 -3 123 -23z m-48 -958 c0 -9 -5 -14
-12 -12 -18 6 -21 28 -4 28 9 0 16 -7 16 -16z"/>
<path d="M1778 2643 c-51 -28 -50 -22 -27 -113 10 -40 43 -67 63 -51 7 6 27
45 46 87 32 74 33 77 15 90 -26 20 -43 17 -97 -13z"/>
<path d="M1651 2555 c-51 -47 -77 -94 -68 -119 6 -14 146 -96 164 -96 9 0 53
87 53 103 0 3 -13 10 -29 17 -25 10 -31 20 -42 76 -7 35 -17 64 -21 64 -5 0
-31 -20 -57 -45z"/>
<path d="M3956 5418 c-26 -356 -32 -2540 -7 -2843 11 -140 20 -364 21 -514 0
-85 2 -93 18 -86 9 4 62 18 117 32 80 20 114 24 170 19 163 -14 370 -100 462
-192 30 -29 60 -69 69 -89 8 -19 17 -35 20 -35 2 0 2 57 -1 127 -3 71 -12 310
-20 533 -8 223 -20 565 -27 760 -9 238 -12 686 -10 1363 l2 1007 -404 0 -404
0 -6 -82z m404 -1868 c0 -14 -35 -30 -67 -29 l-28 1 32 9 c18 5 35 14 38 19 8
13 25 13 25 0z m-15 -59 c-9 -29 25 -61 70 -67 73 -10 84 -14 96 -36 22 -40
11 -96 -35 -186 -89 -174 -120 -231 -123 -229 -1 2 10 34 24 72 19 53 26 90
27 155 1 81 -1 88 -36 152 -36 63 -46 106 -32 142 9 22 17 20 9 -3z m45 -22
c0 -5 -4 -9 -10 -9 -5 0 -10 7 -10 16 0 8 5 12 10 9 6 -3 10 -10 10 -16z m-75
-171 c38 -29 55 -76 54 -145 -1 -70 -17 -121 -18 -58 -1 50 -24 85 -56 85 -30
0 -60 -41 -52 -73 6 -21 6 -21 -8 -3 -20 27 -19 76 3 92 13 10 15 15 5 25 -10
10 -16 9 -27 -7 -32 -43 -26 -111 12 -140 9 -8 12 -14 5 -14 -6 0 -23 14 -37
31 -20 24 -26 41 -25 77 0 35 3 42 9 27 7 -16 9 -13 15 22 4 24 12 40 17 37 5
-3 12 3 15 15 3 12 9 21 14 21 5 0 9 4 9 10 0 5 -7 7 -15 4 -8 -4 -15 -12 -15
-20 0 -17 -17 -18 -23 -1 -3 8 -10 7 -26 -7 -12 -11 -20 -25 -17 -32 3 -8 -1
-11 -9 -8 -10 4 -16 -5 -21 -31 -3 -20 -4 -39 0 -42 3 -4 6 5 6 20 0 14 3 28
8 30 4 3 7 -21 7 -53 0 -48 4 -63 25 -85 14 -15 39 -34 55 -41 17 -7 23 -13
14 -14 -22 0 -78 39 -102 72 -29 39 -33 115 -8 156 44 69 132 93 186 50z
m-125 -68 c0 -5 -2 -10 -4 -10 -3 0 -8 5 -11 10 -3 6 -1 10 4 10 6 0 11 -4 11
-10z m384 -139 c53 -28 156 -116 156 -134 0 -5 -26 15 -58 45 -56 54 -145 108
-177 108 -8 0 -15 5 -15 11 0 14 32 4 94 -30z m-87 -43 c-2 -13 -4 -5 -4 17
-1 22 1 32 4 23 2 -10 2 -28 0 -40z m-331 -23 c20 -14 43 -25 50 -25 8 0 14
-10 14 -22 0 -13 3 -33 6 -44 7 -25 -7 -29 -160 -40 l-89 -7 21 30 c23 33 112
133 117 133 2 0 21 -11 41 -25z m414 -68 c72 1 73 1 25 -7 -27 -5 -65 -9 -82
-9 -32 -1 -33 0 -32 42 2 42 2 42 8 8 l6 -34 75 0z m158 -34 c-20 -5 -25 -43
-5 -43 9 0 9 -2 0 -8 -6 -4 -13 -21 -16 -37 -2 -18 -5 -8 -6 26 -1 59 3 70 28
68 13 -1 13 -2 -1 -6z m-150 -32 c2 -13 0 -27 -5 -32 -6 -6 -8 3 -5 22 4 29 3
31 -18 24 -16 -5 -20 -4 -15 4 11 19 40 8 43 -18z m57 19 c-3 -5 -12 -7 -20
-3 -21 7 -19 13 6 13 11 0 18 -4 14 -10z m42 -12 c-3 -8 -6 -5 -6 6 -1 11 2
17 5 13 3 -3 4 -12 1 -19z m-238 -9 c4 -12 2 -12 -12 0 -15 12 -17 10 -17 -14
0 -21 4 -26 18 -21 16 6 16 5 0 -7 -9 -7 -18 -24 -21 -37 -2 -14 -5 0 -6 31 0
31 2 59 6 63 10 9 26 2 32 -15z m69 -16 c-1 -37 -1 -37 -5 -5 -6 48 -23 39
-23 -13 0 -25 5 -45 10 -45 6 0 10 5 10 10 0 6 4 10 10 10 5 0 7 -7 4 -15 -8
-21 -42 -19 -48 3 -4 14 -3 40 3 85 1 4 10 7 21 7 17 0 20 -6 18 -37z m-130 7
c4 -12 3 -13 -10 -2 -13 10 -17 10 -21 -3 -4 -9 2 -19 13 -25 22 -12 27 -54 9
-66 -6 -3 -18 1 -27 11 -16 16 -16 17 6 10 28 -8 29 11 2 40 -13 14 -18 28
-14 39 8 20 35 17 42 -4z m-94 2 c2 -4 7 -23 11 -43 5 -27 2 -40 -10 -53 -25
-25 -35 -11 -35 50 0 40 4 54 14 54 8 0 17 -3 20 -8z m343 -54 c-2 -13 -4 -3
-4 22 0 25 2 35 4 23 2 -13 2 -33 0 -45z m-470 35 c3 -7 -4 -9 -16 -6 -19 5
-21 1 -21 -35 0 -43 16 -64 31 -41 7 11 9 11 9 1 0 -19 -31 -27 -41 -11 -13
21 -11 83 3 97 14 14 30 11 35 -5z m67 1 c18 -48 -5 -117 -34 -99 -11 7 -14
98 -3 108 11 12 31 7 37 -9z m-166 -5 c-21 -12 -24 -35 -5 -43 10 -5 10 -7 0
-12 -19 -9 -16 -42 5 -47 13 -4 11 -5 -5 -6 -21 -1 -23 3 -23 52 0 57 4 67 29
67 14 -1 13 -2 -1 -11z m-60 -102 c12 -3 11 -5 -5 -6 -22 -1 -23 3 -21 57 l2
57 3 -52 c3 -38 8 -53 21 -56z m679 66 c-3 -10 -5 -4 -5 12 0 17 2 24 5 18 2
-7 2 -21 0 -30z m-130 -15 c-3 -7 -5 -2 -5 12 0 14 2 19 5 13 2 -7 2 -19 0
-25z m30 10 c-3 -8 -6 -5 -6 6 -1 11 2 17 5 13 3 -3 4 -12 1 -19z"/>
<path d="M4340 3431 c0 -5 5 -13 10 -16 6 -3 10 -2 10 4 0 5 -4 13 -10 16 -5
3 -10 2 -10 -4z"/>
<path d="M4360 3389 c0 -4 9 -17 21 -30 20 -24 20 -24 9 -1 -6 12 -9 26 -6 31
3 4 -1 8 -9 8 -8 0 -15 -4 -15 -8z"/>
<path d="M4437 3371 c-13 -26 -13 -28 4 -24 10 3 15 11 13 18 -7 17 8 26 26
14 11 -6 12 -9 2 -9 -7 0 -11 -4 -8 -9 3 -4 -3 -16 -14 -26 -11 -10 -20 -29
-20 -42 0 -13 -6 -23 -14 -23 -9 0 -12 -7 -9 -20 6 -23 23 -27 23 -5 0 8 5 15
11 15 7 0 8 -7 4 -17 -4 -10 -10 -26 -12 -35 -3 -10 -9 -15 -14 -12 -5 3 -9
-9 -9 -27 0 -18 3 -29 8 -25 4 4 7 11 7 14 1 4 9 21 18 39 19 36 22 69 7 78
-8 5 25 85 35 85 10 0 0 -53 -11 -57 -16 -6 -19 -33 -4 -33 29 0 36 84 10 115
-19 23 -37 18 -53 -14z"/>
<path d="M4411 3304 c0 -11 3 -14 6 -6 3 7 2 16 -1 19 -3 4 -6 -2 -5 -13z"/>
<path d="M4260 3271 c0 -6 6 -12 13 -12 6 -1 22 -3 35 -4 13 -1 21 2 19 9 -5
14 -67 21 -67 7z"/>
<path d="M4267 3206 c-4 -10 -1 -13 9 -9 15 6 19 23 5 23 -5 0 -11 -7 -14 -14z"/>
<path d="M4336 3204 c-8 -20 -8 -24 2 -24 4 0 8 9 9 20 2 24 -3 26 -11 4z"/>
<path d="M4235 3180 c-3 -5 -1 -10 4 -10 6 0 11 5 11 10 0 6 -2 10 -4 10 -3 0
-8 -4 -11 -10z"/>
<path d="M4079 2993 c-19 -21 -45 -50 -57 -64 l-23 -27 48 5 c50 6 95 22 61
23 -22 0 -23 13 -3 30 8 7 15 17 15 22 0 5 -7 2 -16 -6 -8 -9 -19 -16 -24 -16
-4 0 -6 -9 -3 -20 4 -16 0 -20 -18 -20 -22 0 -22 0 -3 15 10 8 15 15 10 15 -6
0 3 13 19 30 15 16 32 27 37 24 4 -3 13 -2 19 2 8 4 7 9 -2 15 -21 13 -22 12
-60 -28z"/>
<path d="M4137 2933 c-4 -3 -7 -11 -7 -17 0 -6 5 -5 12 2 6 6 9 14 7 17 -3 3
-9 2 -12 -2z"/>
<path d="M4260 2830 c0 -32 4 -49 10 -45 6 3 10 24 10 45 0 21 -4 42 -10 45
-6 4 -10 -13 -10 -45z"/>
<path d="M4190 2825 c0 -33 4 -45 15 -45 16 0 21 43 9 74 -12 31 -24 16 -24
-29z"/>
<path d="M5176 5448 c54 -74 98 -132 186 -246 l77 -99 11 -144 c12 -141 5
-499 -9 -499 -3 0 -12 -9 -19 -20 -9 -16 -10 -77 -1 -292 9 -233 14 -280 31
-327 20 -54 21 -65 12 -366 -4 -170 -8 -358 -9 -418 0 -59 -2 -107 -5 -107 -3
0 -10 10 -15 23 -7 16 -20 23 -48 25 -49 4 -54 -9 -63 -177 l-7 -131 77 0 c66
0 76 -2 76 -17 0 -10 5 -144 10 -298 5 -154 10 -344 11 -422 1 -100 5 -147 14
-160 12 -17 14 -16 20 12 4 17 8 36 11 43 2 8 24 12 63 12 53 0 315 19 317 23
0 1 -5 86 -12 189 -6 103 -15 293 -19 423 l-7 235 28 2 c16 1 82 2 146 3 65 0
122 5 128 11 11 11 41 204 33 217 -2 4 -19 7 -38 7 -29 0 -34 4 -37 28 -4 38
-43 43 -60 8 -12 -28 -38 -36 -38 -12 0 8 -8 24 -18 36 -16 19 -22 21 -40 11
-12 -6 -25 -23 -28 -36 -7 -29 -62 -61 -78 -45 -6 6 -4 16 6 27 8 10 18 26 21
36 4 9 13 17 21 17 21 0 49 45 42 68 -4 12 1 25 14 37 45 41 10 145 -49 145
-22 0 -29 7 -40 35 -7 20 -23 43 -37 51 -19 13 -24 25 -24 59 0 43 1 45 88
111 136 105 213 176 208 190 -3 8 0 13 6 11 6 -1 23 18 36 41 20 36 24 56 23
110 -3 123 -48 480 -63 499 -5 7 -34 28 -64 48 -30 20 -54 39 -54 41 0 6 79
-38 111 -60 8 -6 1 2 -15 17 -17 16 -44 35 -61 44 -16 9 -31 17 -33 18 -1 1 7
22 18 46 11 24 20 54 20 67 0 19 -5 22 -43 22 -32 0 -45 -5 -55 -21 -15 -24
-70 -49 -107 -49 l-25 0 0 98 0 98 34 12 c79 29 312 197 337 243 15 28 6 23
-42 -24 -59 -58 -117 -99 -128 -92 -5 3 -17 -2 -26 -12 -14 -13 -21 -14 -36
-5 -10 7 -19 8 -19 3 0 -5 8 -12 17 -16 16 -6 15 -8 -7 -26 -14 -10 -46 -30
-72 -44 -40 -21 -48 -22 -58 -10 -7 8 -17 15 -23 15 -6 0 -2 -7 9 -16 18 -14
18 -15 -3 -4 -13 6 -23 14 -23 18 0 4 -13 21 -29 38 l-29 31 91 61 c240 158
298 203 397 302 88 88 220 252 220 274 0 3 -60 6 -134 6 -152 0 -146 4 -146
-86 0 -30 -4 -54 -10 -54 -5 0 -10 4 -10 9 0 5 -15 26 -34 45 -29 32 -39 36
-82 36 -29 0 -64 -8 -84 -19 l-35 -18 -5 -124 c-4 -107 -7 -124 -22 -127 -16
-3 -16 -1 -4 22 13 25 14 136 1 156 -3 5 -1 18 5 29 8 15 7 23 -3 33 -12 11
-12 18 -1 45 8 18 14 37 14 43 0 6 -34 9 -90 8 -60 -1 -87 -5 -80 -12 6 -6 10
-14 10 -20 0 -5 -8 1 -19 12 -20 24 -43 30 -35 9 3 -8 -3 -20 -12 -28 -16 -13
-17 -12 -11 5 8 21 -6 36 -33 36 -12 -1 -11 -4 3 -14 10 -8 14 -17 9 -20 -4
-2 -15 4 -22 15 -17 23 -32 25 -24 4 4 -8 2 -15 -4 -15 -5 0 -12 7 -16 15 -4
12 -25 15 -96 15 l-90 0 37 -50 c21 -27 63 -82 93 -122 30 -40 88 -108 129
-150 86 -89 111 -124 111 -155 0 -16 -8 -25 -27 -29 -16 -4 -43 -18 -61 -32
l-33 -25 -37 37 c-31 32 -33 37 -14 31 14 -4 22 -2 22 5 0 7 -9 14 -20 17 -11
3 -20 12 -20 19 0 8 -4 14 -9 14 -5 0 -14 14 -21 30 -7 17 -19 30 -26 30 -8 0
-14 5 -14 10 0 6 -7 10 -15 10 -20 0 -19 10 3 27 12 10 14 16 5 19 -7 3 -13
12 -13 21 0 10 -6 12 -20 8 -19 -6 -27 9 -20 40 1 6 -2 7 -5 3 -13 -13 -45 12
-45 33 0 15 -4 19 -16 15 -12 -4 -15 -2 -10 9 3 8 1 15 -5 15 -6 0 -8 4 -5 9
3 5 -6 21 -19 35 -14 15 -25 34 -25 42 0 7 -4 14 -10 14 -5 0 -10 4 -10 10 0
5 -10 21 -22 35 -17 20 -31 25 -66 25 l-44 0 38 -52z m673 21 c-16 -10 -23 -4
-14 10 3 6 11 8 17 5 6 -4 5 -9 -3 -15z m-149 -9 c0 -5 -4 -10 -10 -10 -5 0
-10 5 -10 10 0 6 5 10 10 10 6 0 10 -4 10 -10z m80 0 c0 -5 -2 -10 -4 -10 -3
0 -8 5 -11 10 -3 6 -1 10 4 10 6 0 11 -4 11 -10z m71 -17 c-1 -4 -5 -9 -11 -9
-5 -1 -13 -2 -17 -3 -3 0 4 -12 17 -26 24 -26 21 -47 -3 -27 -8 7 -17 9 -20 5
-11 -10 -8 -45 2 -38 5 3 12 1 16 -5 3 -5 -1 -10 -10 -10 -8 0 -18 7 -21 15
-4 8 -10 15 -16 15 -5 0 -6 -4 -3 -10 3 -5 2 -10 -4 -10 -21 0 -19 18 4 38 28
25 32 42 10 42 -8 0 -15 -4 -15 -10 0 -5 -4 -10 -10 -10 -24 0 -7 21 32 39 43
19 50 20 49 4z m-230 -30 c13 -16 12 -17 -3 -4 -10 7 -18 15 -18 17 0 8 8 3
21 -13z m323 -7 c-6 -15 -34 -31 -34 -19 0 5 30 32 37 33 1 0 0 -6 -3 -14z
m-200 -7 c-3 -6 0 -15 7 -20 11 -7 10 -9 -4 -9 -10 0 -15 -4 -12 -10 3 -5 1
-10 -6 -10 -7 0 -9 8 -6 21 4 15 2 19 -9 15 -14 -6 -19 5 -7 17 11 12 45 8 37
-4z m-54 -33 c0 -11 -19 -15 -25 -6 -3 5 1 10 9 10 9 0 16 -2 16 -4z m17 -32
c-3 -3 -12 -4 -19 -1 -8 3 -5 6 6 6 11 1 17 -2 13 -5z m103 -19 c0 -2 -7 -5
-15 -9 -9 -3 -15 0 -15 9 0 9 6 12 15 9 8 -4 15 -7 15 -9z m-48 -22 c13 -12
21 -12 40 -2 13 6 27 17 31 23 5 6 5 0 1 -14 -10 -35 -32 -56 -47 -41 -6 6
-15 11 -19 11 -14 0 -8 -20 11 -37 11 -9 17 -22 14 -29 -2 -7 4 -14 17 -16 25
-4 30 -22 7 -26 -11 -2 -21 7 -29 25 -6 15 -23 40 -36 54 -13 15 -25 38 -26
53 -3 26 4 26 36 -1z m299 -12 l23 -18 -35 -30 c-65 -58 -97 -83 -103 -83 -10
0 -7 46 5 77 14 37 48 73 70 73 9 0 27 -8 40 -19z m-206 -21 c3 -5 1 -10 -4
-10 -6 0 -11 5 -11 10 0 6 2 10 4 10 3 0 8 -4 11 -10z m-218 -737 c48 -108 53
-123 43 -123 -6 0 -10 5 -10 11 0 5 -22 45 -50 88 -27 43 -50 81 -50 84 0 4 8
7 18 7 13 0 27 -20 49 -67z m383 49 c0 -5 -6 -17 -14 -27 -13 -19 -14 -18 -13
8 1 15 8 27 15 27 6 0 12 -4 12 -8z m-74 -54 c-2 -13 -10 -55 -17 -95 -14 -82
-12 -83 -79 29 -18 31 -37 55 -42 52 -5 -3 -17 -23 -28 -44 -14 -27 -25 -38
-35 -34 -8 4 -15 1 -15 -6 0 -6 5 -8 12 -4 8 5 9 2 5 -10 -4 -10 -7 -22 -7
-27 0 -6 -4 -7 -10 -4 -15 9 -12 52 6 69 14 15 14 16 -1 16 -12 0 -15 6 -10
20 4 12 2 20 -5 20 -6 0 -9 4 -5 9 3 6 49 10 102 10 53 0 101 5 107 11 17 17
27 11 22 -12z m-358 -23 c-2 -3 -33 -19 -69 -37 l-64 -33 3 -200 c2 -110 5
-202 7 -203 8 -9 45 11 45 24 0 8 5 14 10 14 6 0 10 -7 10 -16 0 -8 4 -13 9
-10 5 4 3 19 -5 36 -9 16 -13 34 -10 39 4 5 2 11 -3 13 -6 1 -15 26 -22 53 -6
28 -15 58 -20 67 -12 24 -11 61 1 53 6 -3 10 -2 10 3 0 5 9 12 20 15 11 3 20
13 20 22 0 12 -5 15 -20 10 -22 -7 -26 5 -8 23 10 10 8 14 -9 18 -20 6 -20 7
-5 25 16 19 17 19 26 -3 5 -13 10 -26 10 -30 1 -12 20 -11 24 0 2 6 -3 16 -11
23 -20 19 -10 46 20 54 14 3 27 5 28 3 13 -14 55 -105 55 -120 0 -10 4 -26 8
-36 5 -9 13 -26 19 -37 14 -30 11 -177 -4 -182 -7 -3 -13 -13 -13 -24 0 -13
-7 -19 -22 -19 -17 0 -19 -3 -9 -9 11 -7 11 -13 -3 -32 -9 -13 -16 -33 -16
-45 0 -28 54 -74 85 -74 13 0 27 -5 30 -10 4 -6 14 -10 23 -9 39 3 82 -2 82
-10 0 -5 -59 -8 -137 -6 -131 3 -139 2 -155 -18 -14 -18 -18 -19 -18 -5 0 9
-5 18 -12 20 -14 5 -25 140 -12 137 18 -3 34 1 34 10 0 5 -11 11 -25 13 -25 5
-25 4 -25 -58 0 -100 28 -160 118 -252 42 -44 88 -88 102 -98 14 -11 34 -30
45 -44 l20 -24 -23 16 c-12 8 -65 54 -118 103 -131 121 -154 167 -165 332 -13
208 -13 441 0 457 15 18 109 66 130 66 8 0 12 -2 9 -5z m249 -84 c-2 -24 -7
-31 -24 -31 -22 0 -73 -52 -73 -74 0 -27 46 -81 77 -90 22 -7 31 -16 30 -30 0
-12 3 -56 6 -98 l5 -78 -53 0 -53 0 15 43 c26 73 21 135 -15 193 -18 28 -32
54 -32 56 0 3 21 45 46 92 43 81 47 86 60 68 7 -11 12 -34 11 -51z m228 -10
c12 -5 26 -15 32 -23 12 -14 29 -106 39 -204 2 -32 8 -62 11 -68 12 -18 14
-227 3 -267 -14 -51 -26 -56 -45 -19 -14 27 -18 29 -36 17 -17 -10 -22 -9 -33
6 -7 9 -21 17 -30 17 -24 0 -19 19 9 32 14 6 25 15 25 21 0 5 7 6 16 3 13 -5
15 -2 9 11 -4 10 -10 28 -12 40 -3 13 -9 20 -14 17 -5 -3 -9 8 -9 25 0 21 -4
29 -13 25 -22 -8 -51 81 -54 164 -2 41 3 99 11 130 8 32 17 70 20 85 7 28 8
28 29 13 12 -9 31 -20 42 -25z m-111 -28 c-3 -27 -11 -52 -16 -58 -7 -7 -8 -1
-4 19 4 15 10 41 13 57 9 47 15 33 7 -18z m-38 -55 c13 -25 13 -32 -5 -65 -21
-40 -29 -31 -10 11 10 21 8 32 -11 67 -16 32 -18 40 -5 29 9 -7 23 -26 31 -42z
m-86 1 c0 -5 -7 -9 -15 -9 -15 0 -20 12 -9 23 8 8 24 -1 24 -14z m48 -13 c3
-12 -1 -17 -10 -14 -7 3 -15 13 -16 22 -3 12 1 17 10 14 7 -3 15 -13 16 -22z
m-88 -12 c0 -8 -4 -14 -10 -14 -5 0 -10 9 -10 21 0 11 5 17 10 14 6 -3 10 -13
10 -21z m55 -24 c0 -22 -29 -18 -33 3 -3 14 1 18 15 15 10 -2 18 -10 18 -18z
m35 -10 c0 -5 -5 -10 -11 -10 -5 0 -7 5 -4 10 3 6 8 10 11 10 2 0 4 -4 4 -10z
m47 -87 c-2 -16 -4 -3 -4 27 0 30 2 43 4 28 2 -16 2 -40 0 -55z m-167 -73
l-11 -25 6 25 c2 14 6 39 6 55 l2 30 4 -30 c2 -17 -1 -42 -7 -55z m162 -30
c-8 -11 -22 28 -21 60 1 35 1 35 13 -10 6 -25 10 -47 8 -50z m-432 59 c0 -5
-4 -9 -10 -9 -5 0 -10 7 -10 16 0 8 5 12 10 9 6 -3 10 -10 10 -16z m469 -63
c2 -25 -18 13 -23 44 l-6 35 14 -35 c8 -19 15 -39 15 -44z m-439 16 c0 -4 -9
-13 -20 -20 -16 -10 -20 -10 -20 1 0 8 3 17 7 20 9 9 33 9 33 -1z m397 -71
c-10 -4 -27 17 -27 33 0 5 8 1 19 -10 10 -10 14 -21 8 -23z m-186 11 c-7 -2
-18 1 -23 6 -8 8 -4 9 13 5 13 -4 18 -8 10 -11z m239 -2 c-8 -5 -19 -10 -25
-10 -5 0 -3 5 5 10 8 5 20 10 25 10 6 0 3 -5 -5 -10z m-186 -31 c76 -10 81
-12 71 -29 -5 -8 -10 -8 -14 -2 -3 5 -42 13 -86 16 -43 4 -81 9 -83 11 -10 9
12 26 27 20 9 -4 47 -11 85 -16z m232 -21 c15 -30 15 -32 -2 -45 -10 -7 -29
-14 -43 -15 -14 0 -33 -1 -42 -2 -9 -1 -17 4 -18 9 -1 6 20 12 46 15 34 4 48
9 48 20 0 8 -8 15 -17 15 -9 0 -20 4 -24 8 -4 4 -12 3 -18 -2 -6 -5 -20 -5
-31 -1 -18 7 -17 8 10 15 17 4 35 8 40 10 25 8 36 3 51 -27z m-238 -34 c59 -5
82 -10 82 -20 0 -27 -168 -6 -192 24 -11 13 -10 14 7 9 11 -3 57 -9 103 -13z
m122 -84 c0 -5 -9 -10 -21 -10 -11 0 -17 5 -14 10 3 6 13 10 21 10 8 0 14 -4
14 -10z m-280 -49 c0 -5 -8 -7 -19 -4 -11 3 -21 -2 -25 -12 -8 -21 12 -48 31
-41 7 3 13 1 13 -4 0 -15 -36 -12 -50 5 -20 24 -4 65 25 65 14 0 25 -4 25 -9z
m76 -27 c8 -20 13 -39 10 -42 -3 -2 -7 1 -10 9 -13 43 -17 51 -22 46 -3 -3 -7
-13 -8 -23 -2 -10 -8 -20 -14 -22 -9 -3 -9 3 -2 24 21 55 26 56 46 8z m58 20
c8 -22 8 -26 -3 -19 -5 3 -12 -7 -14 -22 -3 -20 -4 -16 -6 15 -1 42 11 56 23
26z m56 -25 c0 -16 -5 -29 -11 -29 -5 0 -7 5 -3 11 3 6 1 15 -6 19 -7 4 -10
15 -7 25 10 24 27 8 27 -26z m54 35 c23 -9 20 -44 -3 -44 -11 0 -22 -8 -24
-17 -3 -10 -5 -2 -6 18 -1 45 5 54 33 43z m61 -13 c-19 -8 -19 -8 0 -19 18
-10 18 -11 3 -12 -10 0 -18 -4 -18 -9 0 -5 8 -12 18 -14 13 -4 11 -5 -5 -6
-20 -1 -23 4 -23 34 0 30 3 35 23 34 20 0 21 -1 2 -8z m85 -3 c0 -7 3 -22 6
-33 4 -17 0 -20 -24 -20 -27 0 -29 2 -21 24 6 13 12 28 15 32 8 13 24 11 24
-3z m88 -19 c3 -30 -18 -52 -42 -43 -16 6 -23 54 -9 68 16 16 48 1 51 -25z
m-318 -13 c0 -3 -4 -8 -10 -11 -5 -3 -10 -1 -10 4 0 6 5 11 10 11 6 0 10 -2
10 -4z m-118 -86 c5 -36 -1 -38 -31 -6 -24 25 -22 27 20 35 4 0 9 -12 11 -29z
m354 11 c8 6 14 7 14 3 0 -11 -40 -37 -46 -31 -3 2 -1 12 3 23 4 11 8 13 11 6
3 -10 7 -10 18 -1z m-256 -19 c0 -10 -6 -24 -12 -30 -10 -10 -10 -15 2 -23 12
-9 12 -10 -3 -5 -10 3 -24 6 -30 6 -6 0 -1 10 11 23 27 28 27 34 5 40 -14 4
-12 5 5 6 15 1 22 -5 22 -17z m88 -10 c4 -26 -13 -52 -34 -52 -23 0 -40 46
-24 65 19 23 54 15 58 -13z m67 17 c4 -5 0 -18 -9 -28 -20 -22 -20 -28 2 -34
10 -3 6 -5 -10 -6 -31 -1 -34 5 -13 33 19 25 19 40 0 32 -8 -3 -15 -1 -15 4 0
13 37 13 45 -1z m45 -24 c0 -46 -15 -46 -16 0 0 19 3 35 8 35 4 0 8 -16 8 -35z
m-188 -87 c-7 -7 -12 -8 -12 -2 0 14 12 26 19 19 2 -3 -1 -11 -7 -17z m87 -10
c-28 -23 -39 -23 -39 2 0 15 6 19 30 17 l31 -2 -22 -17z m-57 -20 c-9 -9 -12
-7 -12 12 0 19 3 21 12 12 9 -9 9 -15 0 -24z m50 -215 c31 -28 17 -128 -20
-141 -15 -5 -51 72 -52 109 0 46 37 64 72 32z m-103 -87 c27 -14 61 -56 61
-74 0 -15 -69 -22 -96 -10 -33 15 -42 53 -19 78 22 24 19 24 54 6z m215 -8
c20 -29 20 -34 -4 -58 -19 -19 -88 -28 -103 -14 -16 16 46 94 74 94 10 0 25
-10 33 -22z m-151 -104 c11 -11 -33 -64 -53 -64 -27 0 -37 40 -14 57 19 14 56
17 67 7z m121 -16 c8 -14 7 -22 -6 -35 -17 -16 -19 -16 -43 7 -14 13 -25 30
-25 37 0 20 60 12 74 -9z m-74 -27 c18 -45 10 -76 -20 -76 -21 0 -26 5 -28 32
-3 33 12 73 27 73 5 0 14 -13 21 -29z m157 -115 c-10 -25 -37 -19 -37 7 0 13
3 27 7 31 11 11 36 -21 30 -38z m98 -53 c-11 -145 -12 -148 -45 -150 -41 -3
-54 25 -46 95 8 64 21 85 47 77 15 -5 19 -1 19 18 0 25 7 37 23 37 5 0 6 -32
2 -77z m-705 7 c0 -25 3 -27 38 -26 l37 1 3 -52 c4 -68 -9 -117 -33 -121 -16
-4 -17 2 -13 63 5 52 3 68 -9 72 -22 9 -28 -4 -33 -70 -4 -55 -8 -62 -27 -65
-17 -3 -23 2 -23 15 1 45 19 203 25 212 11 19 35 -1 35 -29z m464 -35 c15 -70
18 -71 35 -15 13 42 22 56 39 58 19 3 21 1 12 -25 -5 -15 -16 -54 -25 -85 -14
-53 -18 -58 -44 -58 -25 0 -30 5 -39 43 -34 128 -34 131 -2 125 8 -2 19 -20
24 -43z m134 -37 c-3 -70 -6 -83 -20 -86 -15 -3 -18 4 -18 45 0 74 11 123 27
123 11 0 13 -17 11 -82z m188 67 c-2 -6 -7 -41 -11 -77 -6 -56 -10 -67 -28
-72 -12 -3 -25 0 -30 7 -8 12 -2 131 8 147 8 13 67 9 61 -5z m-399 -7 c19 -15
16 -109 -3 -136 -12 -18 -24 -23 -48 -20 -28 3 -31 0 -34 -27 -4 -28 -16 -45
-36 -45 -7 0 1 217 9 230 6 10 100 8 112 -2z m-145 -72 c-4 -93 -7 -99 -36
-92 -14 3 -28 2 -31 -4 -11 -17 -54 -11 -65 9 -20 38 -6 135 21 152 6 3 34 6
63 6 l51 0 -3 -71z"/>
<path d="M5735 5280 c3 -5 11 -10 16 -10 6 0 7 5 4 10 -3 6 -11 10 -16 10 -6
0 -7 -4 -4 -10z"/>
<path d="M5600 4360 c-13 -8 -12 -10 3 -10 9 0 17 5 17 10 0 12 -1 12 -20 0z"/>
<path d="M5547 4354 c-7 -12 15 -84 25 -84 5 0 8 9 8 20 0 11 -5 20 -11 20 -5
0 -7 4 -4 10 3 5 2 17 -3 26 -5 9 -12 12 -15 8z"/>
<path d="M5503 4283 c-23 -4 -30 -18 -15 -26 11 -7 52 11 52 23 0 5 -3 9 -7 9
-5 -1 -18 -4 -30 -6z"/>
<path d="M5580 4239 c7 -11 14 -18 17 -15 8 8 -5 36 -17 36 -7 0 -7 -6 0 -21z"/>
<path d="M5546 4231 c-3 -5 -16 -7 -28 -3 -14 3 -19 2 -14 -6 10 -16 31 -15
46 3 7 8 10 15 7 15 -3 0 -8 -4 -11 -9z"/>
<path d="M5596 4196 c3 -9 11 -16 16 -16 13 0 5 23 -10 28 -7 2 -10 -2 -6 -12z"/>
<path d="M5560 4180 c0 -5 5 -10 10 -10 6 0 10 5 10 10 0 6 -4 10 -10 10 -5 0
-10 -4 -10 -10z"/>
<path d="M5612 4148 c2 -6 10 -14 16 -16 7 -2 10 2 6 12 -7 18 -28 22 -22 4z"/>
<path d="M5576 4135 c-3 -8 -1 -15 4 -15 6 0 10 7 10 15 0 8 -2 15 -4 15 -2 0
-6 -7 -10 -15z"/>
<path d="M5635 4100 c3 -5 8 -10 11 -10 2 0 4 5 4 10 0 6 -5 10 -11 10 -5 0
-7 -4 -4 -10z"/>
<path d="M5513 3952 c-13 -2 -23 -10 -23 -18 0 -18 11 -18 36 0 22 17 18 23
-13 18z"/>
<path d="M5580 3918 c0 -9 5 -20 10 -23 13 -8 13 5 0 25 -8 13 -10 13 -10 -2z"/>
<path d="M5971 4164 c0 -11 3 -14 6 -6 3 7 2 16 -1 19 -3 4 -6 -2 -5 -13z"/>
<path d="M5990 4121 c0 -6 4 -13 10 -16 6 -3 7 1 4 9 -7 18 -14 21 -14 7z"/>
<path d="M6005 4070 c3 -5 8 -10 11 -10 2 0 4 5 4 10 0 6 -5 10 -11 10 -5 0
-7 -4 -4 -10z"/>
<path d="M6070 3880 c6 -11 13 -20 16 -20 2 0 0 9 -6 20 -6 11 -13 20 -16 20
-2 0 0 -9 6 -20z"/>
<path d="M5840 3780 c0 -5 7 -10 15 -10 8 0 15 5 15 10 0 6 -7 10 -15 10 -8 0
-15 -4 -15 -10z"/>
<path d="M5985 3770 c-8 -13 -1 -24 14 -19 6 3 7 10 2 18 -6 10 -10 10 -16 1z"/>
<path d="M6054 3775 c-8 -21 3 -48 19 -43 19 7 22 58 2 58 -8 0 -18 -7 -21
-15z"/>
<path d="M5804 3655 c-8 -20 3 -48 16 -40 13 8 13 55 0 55 -6 0 -13 -7 -16
-15z"/>
<path d="M6056 2868 c-11 -42 -7 -78 9 -78 11 0 15 12 15 50 0 52 -13 67 -24
28z"/>
<path d="M6158 2884 c-14 -21 -21 -94 -9 -94 6 0 13 11 17 24 7 30 1 84 -8 70z"/>
<path d="M5732 2868 c-15 -15 -16 -84 -2 -93 22 -13 41 17 38 58 -3 43 -16 55
-36 35z"/>
<path d="M5570 2855 c-7 -8 -13 -32 -14 -53 -1 -30 2 -37 19 -37 27 0 44 70
23 91 -13 13 -16 13 -28 -1z"/>
<path d="M6935 5490 c3 -5 15 -10 26 -10 10 0 19 5 19 10 0 6 -12 10 -26 10
-14 0 -23 -4 -19 -10z"/>
<path d="M7000 5480 c0 -24 9 -26 25 -4 11 15 12 14 11 -6 -1 -13 5 -25 12
-27 8 -3 12 6 12 26 0 28 -3 31 -30 31 -23 0 -30 -4 -30 -20z"/>
<path d="M7070 5467 c0 -60 41 -77 59 -26 15 43 14 59 -4 59 -8 0 -15 -7 -15
-15 0 -8 -4 -15 -10 -15 -5 0 -7 7 -4 15 4 9 0 15 -10 15 -11 0 -16 -9 -16
-33z"/>
<path d="M7142 5453 c-9 -39 -8 -51 3 -62 12 -13 15 -13 19 0 2 8 9 28 15 44
10 27 11 26 6 -17 -4 -43 -2 -48 15 -48 12 0 22 9 26 25 3 13 13 30 22 37 14
11 15 10 8 -7 -4 -11 -10 -32 -13 -47 -5 -23 -2 -28 15 -28 16 0 25 13 42 66
16 46 19 69 12 76 -16 16 -40 3 -44 -24 -4 -23 -5 -22 -16 5 -13 31 -29 34
-48 10 -13 -17 -13 -17 -14 0 0 10 -8 17 -18 17 -14 0 -21 -12 -30 -47z"/>
<path d="M8102 5423 c112 -114 124 -144 142 -340 8 -89 16 -166 19 -170 3 -4
21 -82 41 -172 37 -166 40 -173 89 -204 26 -17 30 -17 52 -3 14 9 33 16 45 16
13 0 41 27 82 81 71 91 191 245 213 271 26 31 69 103 71 118 4 19 5 161 5 338
l-1 142 -417 0 -418 0 77 -77z"/>
<path d="M8939 5498 c0 -2 -1 -113 -3 -247 l-2 -244 25 -31 c47 -57 194 -206
203 -206 5 0 7 4 4 9 -10 15 26 22 43 8 9 -8 31 -20 49 -27 34 -13 57 -43 47
-60 -10 -15 41 -6 58 11 9 9 17 33 19 53 2 28 -4 40 -25 58 -47 41 -34 57 62
77 49 10 58 9 108 -14 30 -14 60 -22 65 -19 6 4 5 -3 -2 -15 -6 -12 -19 -24
-28 -27 -52 -16 -60 -23 -55 -43 3 -12 9 -18 14 -15 5 3 9 0 9 -5 0 -23 19 -9
42 28 13 22 45 72 72 113 l49 73 -2 105 c-1 114 -11 240 -19 254 -2 4 -8 3
-11 -3 -9 -14 -67 6 -93 32 -15 14 -51 23 -80 18 -14 -2 -27 35 -17 50 16 26
10 37 -31 53 -59 24 -67 21 -62 -19 4 -29 1 -34 -14 -30 -30 6 -137 44 -156
55 -15 8 -267 15 -269 8z m321 -613 c0 -8 -7 -15 -15 -15 -16 0 -20 12 -8 23
11 12 23 8 23 -8z"/>
<path d="M9740 5481 c0 -23 22 -38 135 -86 88 -37 185 -59 172 -38 -4 6 -46
25 -94 43 -132 49 -124 56 10 9 65 -22 130 -39 145 -37 l27 3 -35 19 c-40 22
-25 33 22 17 37 -13 88 -14 88 -2 0 14 -21 27 -99 60 -60 25 -86 31 -145 30
l-71 -1 34 -14 c18 -8 31 -17 28 -20 -3 -3 -14 -1 -24 4 -25 13 -123 23 -123
13 0 -5 7 -12 16 -15 27 -10 8 -19 -24 -11 -18 3 -32 14 -35 26 -7 24 -27 25
-27 0z"/>
<path d="M10112 5481 c86 -34 98 -35 98 -6 0 24 -2 25 -72 25 l-73 -1 47 -18z"/>
<path d="M7306 5393 c-9 -26 -16 -48 -16 -49 0 -2 15 -8 33 -13 52 -15 1 -13
-87 4 -78 15 -111 14 -65 -3 13 -5 62 -16 109 -26 243 -49 496 -148 517 -203
20 -52 -88 -47 -232 12 -19 8 -20 8 -2 -12 22 -25 145 -73 187 -73 60 0 86 62
52 124 -21 36 -21 38 -2 21 27 -24 46 -13 53 31 8 46 -6 68 -34 53 -15 -7 -19
-6 -19 5 0 21 -74 43 -93 27 -12 -9 -16 -7 -20 10 -4 16 -12 20 -34 17 -15 -2
-32 2 -38 9 -5 7 -23 13 -40 15 -16 2 -32 5 -35 8 -16 16 -64 30 -73 21 -7 -7
-14 -3 -22 12 -6 12 -15 22 -20 23 -6 0 -27 8 -49 17 -21 9 -42 17 -46 17 -5
0 -15 -21 -24 -47z m45 -40 c-12 -20 -14 -14 -5 12 4 9 9 14 11 11 3 -2 0 -13
-6 -23z m50 -24 c-5 -13 -10 -19 -10 -12 -1 15 10 45 15 40 3 -2 0 -15 -5 -28z
m46 -31 c-3 -8 -6 -5 -6 6 -1 11 2 17 5 13 3 -3 4 -12 1 -19z m153 -29 c0 -20
-15 -26 -24 -10 -8 13 4 42 15 35 5 -3 9 -14 9 -25z m80 -22 c0 -20 0 -20 -14
-2 -8 11 -12 23 -9 28 8 13 23 -3 23 -26z m117 -29 c-3 -8 -6 -5 -6 6 -1 11 2
17 5 13 3 -3 4 -12 1 -19z"/>
<path d="M10160 5384 c0 -3 10 -15 23 -25 l22 -20 -47 6 c-45 6 -66 -5 -35
-19 6 -3 2 -3 -10 0 -44 11 -22 -13 35 -39 l57 -26 3 51 c2 28 1 57 -2 64 -5
13 -46 20 -46 8z"/>
<path d="M406 5345 c4 -8 8 -15 10 -15 2 0 4 7 4 15 0 8 -4 15 -10 15 -5 0 -7
-7 -4 -15z"/>
<path d="M9756 5341 c-9 -14 -9 -175 0 -271 8 -99 21 -123 136 -254 15 -17 34
-40 43 -51 8 -11 15 -15 15 -9 0 6 -7 17 -15 24 -8 7 -15 19 -15 26 0 8 -4 14
-8 14 -5 0 -14 11 -20 25 -11 23 -10 25 14 25 20 0 25 -4 20 -16 -3 -8 -2 -13
3 -10 5 3 11 -1 15 -9 6 -17 66 -21 66 -5 0 6 6 10 14 10 9 0 12 8 8 25 -2 15
0 25 7 25 7 0 11 -6 10 -12 -3 -29 2 -38 25 -38 27 0 42 -15 27 -25 -18 -10
-1 -32 25 -32 17 0 24 5 24 18 0 11 -7 19 -15 19 -21 0 -19 12 5 33 11 9 20
13 20 9 0 -4 11 -8 25 -8 l25 0 0 127 c0 125 -1 128 -22 131 -18 2 -24 10 -26
40 -3 29 -9 38 -32 48 -31 13 -50 7 -50 -15 0 -24 -33 -27 -62 -5 -15 11 -32
20 -39 20 -12 0 -75 26 -99 41 -8 5 -23 12 -32 15 -14 5 -15 10 -7 26 6 11 7
24 2 29 -16 16 -82 39 -87 30z m44 -61 c0 -5 -4 -10 -10 -10 -5 0 -10 5 -10
10 0 6 5 10 10 10 6 0 10 -4 10 -10z m310 -350 c0 -5 -5 -10 -11 -10 -5 0 -7
5 -4 10 3 6 8 10 11 10 2 0 4 -4 4 -10z m20 -40 c0 -13 -20 -13 -40 0 -12 8
-9 10 13 10 15 0 27 -4 27 -10z m-115 -10 c3 -5 -1 -10 -10 -10 -9 0 -13 5
-10 10 3 6 8 10 10 10 2 0 7 -4 10 -10z"/>
<path d="M7461 5233 c-19 -37 24 -62 193 -113 55 -16 103 -27 107 -24 25 15
-44 64 -89 64 -12 0 -33 5 -49 12 -15 6 -32 12 -38 13 -13 2 -46 14 -67 26
-11 5 -19 5 -23 -1 -3 -6 -10 -10 -16 -10 -13 0 -11 28 3 32 9 3 9 6 1 11 -7
4 -16 0 -22 -10z m219 -93 c0 -5 -4 -10 -10 -10 -5 0 -10 5 -10 10 0 6 5 10
10 10 6 0 10 -4 10 -10z"/>
<path d="M58 5202 c-38 -2 -58 -7 -58 -15 0 -9 17 -12 60 -10 48 2 60 0 60
-12 0 -12 -12 -14 -59 -12 l-60 3 -1 -238 0 -237 58 40 c33 21 81 59 106 84
26 25 52 45 57 45 5 0 9 6 9 14 0 8 7 21 15 30 11 11 17 48 21 138 3 68 7 134
8 147 1 23 -1 24 -79 25 -44 0 -106 0 -137 -2z m196 -30 c-2 -29 -5 -33 -15
-26 -7 4 -28 7 -47 8 -46 1 -54 23 -10 28 49 6 73 2 72 -10z m-184 -51 c0 -14
-18 -23 -30 -16 -6 4 -8 11 -5 16 8 12 35 12 35 0z m70 -7 c0 -10 -7 -14 -22
-12 -32 5 -35 28 -4 28 17 0 26 -5 26 -16z m70 7 c0 -5 -7 -11 -15 -15 -9 -3
-15 0 -15 9 0 8 7 15 15 15 8 0 15 -4 15 -9z m50 -7 c0 -9 -5 -14 -12 -12 -18
6 -21 28 -4 28 9 0 16 -7 16 -16z"/>
<path d="M430 5194 c0 -6 17 -11 40 -11 22 0 40 3 40 7 0 5 -18 10 -40 12 -25
2 -40 -1 -40 -8z"/>
<path d="M523 5193 c8 -7 108 -5 116 2 2 3 -24 5 -59 5 -35 0 -60 -3 -57 -7z"/>
<path d="M758 5193 c7 -3 16 -2 19 1 4 3 -2 6 -13 5 -11 0 -14 -3 -6 -6z"/>
<path d="M1040 5196 c0 -2 7 -6 15 -10 8 -3 15 -1 15 4 0 6 -7 10 -15 10 -8 0
-15 -2 -15 -4z"/>
<path d="M1355 5180 c3 -5 13 -10 21 -10 8 0 12 5 9 10 -3 6 -13 10 -21 10 -8
0 -12 -4 -9 -10z"/>
<path d="M291 5164 c0 -11 3 -14 6 -6 3 7 2 16 -1 19 -3 4 -6 -2 -5 -13z"/>
<path d="M1880 5161 c0 -4 11 -6 25 -3 14 2 25 6 25 8 0 2 -11 4 -25 4 -14 0
-25 -4 -25 -9z"/>
<path d="M5485 5160 c-3 -5 -1 -10 4 -10 6 0 11 5 11 10 0 6 -2 10 -4 10 -3 0
-8 -4 -11 -10z"/>
<path d="M750 5150 c-8 -5 -7 -9 5 -14 24 -9 45 -8 45 3 0 12 -35 20 -50 11z"/>
<path d="M846 5152 c-3 -6 -1 -14 5 -17 15 -10 25 3 12 16 -7 7 -13 7 -17 1z"/>
<path d="M540 5140 c16 -11 180 -9 180 2 0 3 -44 7 -97 7 -69 1 -94 -2 -83 -9z"/>
<path d="M1060 5140 c0 -5 7 -10 16 -10 8 0 12 5 9 10 -3 6 -10 10 -16 10 -5
0 -9 -4 -9 -10z"/>
<path d="M1126 5141 c-6 -9 35 -24 43 -15 6 5 -18 24 -31 24 -4 0 -9 -4 -12
-9z"/>
<path d="M1207 5144 c-10 -11 3 -24 24 -24 23 0 25 15 3 24 -19 7 -19 7 -27 0z"/>
<path d="M1351 5141 c-9 -6 -6 -10 11 -14 41 -10 248 -11 218 0 -8 2 -22 7
-30 10 -25 10 -185 12 -199 4z"/>
<path d="M1280 5130 c0 -5 5 -10 10 -10 6 0 10 5 10 10 0 6 -4 10 -10 10 -5 0
-10 -4 -10 -10z"/>
<path d="M1728 5113 c7 -3 16 -2 19 1 4 3 -2 6 -13 5 -11 0 -14 -3 -6 -6z"/>
<path d="M1798 5113 c7 -3 16 -2 19 1 4 3 -2 6 -13 5 -11 0 -14 -3 -6 -6z"/>
<path d="M1865 5110 c3 -5 10 -10 16 -10 5 0 9 5 9 10 0 6 -7 10 -16 10 -8 0
-12 -4 -9 -10z"/>
<path d="M2090 5100 c0 -5 5 -10 10 -10 6 0 10 5 10 10 0 6 -4 10 -10 10 -5 0
-10 -4 -10 -10z"/>
<path d="M8865 4923 c-13 -21 -38 -56 -54 -78 -17 -22 -41 -56 -54 -75 -14
-19 -32 -42 -41 -49 -10 -8 -26 -31 -36 -52 -11 -20 -26 -39 -35 -42 -8 -4
-15 -12 -15 -18 0 -7 -11 -27 -26 -46 -27 -35 -25 -53 5 -53 21 0 35 36 17 44
-7 3 -6 5 2 5 18 1 39 23 36 36 -7 21 74 64 151 80 99 21 107 18 103 -42 -3
-45 -5 -49 -45 -68 -47 -22 -52 -31 -23 -40 19 -6 22 -15 24 -70 2 -24 27 -31
56 -15 16 9 19 15 11 24 -8 10 -7 17 6 27 13 11 17 11 20 2 5 -14 33 -18 33
-5 0 14 66 52 91 52 141 -1 161 5 136 40 -8 12 -13 29 -10 39 7 27 -43 75 -70
67 -12 -4 -48 -10 -79 -13 -70 -7 -76 6 -23 57 19 19 35 39 35 44 -1 15 -165
186 -179 186 -6 0 -22 -17 -36 -37z"/>
<path d="M9700 4878 c-18 -29 -42 -63 -53 -75 l-20 -23 23 -45 c24 -46 34 -52
60 -35 13 8 13 13 -2 42 -23 47 -28 66 -22 83 10 25 34 17 45 -15 6 -16 18
-30 26 -30 9 0 13 -6 9 -15 -9 -25 4 -45 30 -45 29 0 33 34 7 49 -11 7 -13 11
-5 11 15 0 7 40 -10 51 -5 3 -10 17 -12 30 -2 25 -26 69 -37 69 -3 0 -21 -24
-39 -52z"/>
<path d="M289 4810 c-1 -3 -1 -8 0 -12 0 -4 -6 -5 -14 -2 -19 8 -45 -13 -39
-30 6 -16 -91 -90 -106 -81 -15 9 -50 -13 -44 -29 6 -15 -63 -63 -74 -52 -3 4
0 12 8 17 13 9 13 10 0 6 -13 -3 -15 -97 -18 -757 -2 -705 -1 -754 15 -772 17
-19 17 -21 0 -50 -15 -26 -17 -58 -16 -251 1 -122 4 -212 6 -199 6 30 33 39
120 40 68 0 72 -1 78 -25 10 -43 -6 -50 -110 -49 l-96 1 3 -94 c3 -92 4 -95
29 -101 14 -4 48 -24 76 -44 49 -35 86 -45 97 -27 3 5 31 23 61 40 30 17 55
36 55 41 0 6 9 10 20 10 11 0 20 5 20 10 0 6 11 15 24 19 31 12 130 73 134 83
2 4 10 8 18 8 19 0 144 79 144 91 0 5 -11 2 -25 -7 -14 -9 -25 -12 -25 -6 0 6
-20 4 -51 -5 -27 -8 -61 -12 -75 -9 -21 6 -23 11 -18 34 9 35 7 34 51 32 21 0
71 -2 111 -3 62 -1 71 -3 56 -14 -10 -7 -15 -13 -11 -13 13 0 90 42 122 65 17
13 48 32 70 43 22 11 49 28 60 37 20 16 20 16 -2 12 -13 -3 -24 1 -27 10 -8
21 -8 23 8 17 19 -7 256 230 267 268 4 16 6 57 4 90 -2 34 -1 66 3 72 4 6 7
52 8 102 1 51 4 96 7 101 4 5 7 50 8 99 1 49 5 94 9 99 5 6 11 93 14 193 4
100 11 205 17 233 8 35 8 53 1 58 -6 3 -14 20 -18 36 -8 35 -47 75 -73 75 -9
0 -27 9 -39 20 -12 11 -30 20 -40 20 -11 0 -27 11 -36 25 -9 14 -25 25 -35 25
-10 0 -31 11 -47 25 -16 14 -32 25 -36 25 -4 0 -19 11 -34 25 -16 14 -43 33
-61 42 -18 8 -33 19 -33 24 0 5 -6 9 -14 9 -7 0 -25 11 -40 25 -15 14 -33 25
-40 25 -21 0 -59 47 -50 62 5 9 3 9 -10 -2 -16 -13 -20 -12 -35 6 -9 11 -37
34 -63 52 -57 39 -81 62 -73 71 4 3 13 -3 21 -13 7 -11 17 -17 20 -13 4 4 -4
15 -17 26 -14 11 -26 15 -30 9 -6 -9 -43 5 -59 22 -3 3 -17 13 -32 23 -16 10
-28 22 -28 28 0 18 -24 35 -47 35 -13 0 -24 -3 -24 -6z m-164 -140 c-3 -5 -11
-10 -16 -10 -6 0 -7 5 -4 10 3 6 11 10 16 10 6 0 7 -4 4 -10z m379 -445 c21
-29 11 -35 -47 -29 -61 7 -87 22 -64 39 25 18 95 12 111 -10z m-196 -38 c6 -7
8 -18 4 -24 -10 -15 -85 -26 -124 -18 l-32 7 28 24 c31 27 106 34 124 11z
m206 -48 c6 -5 5 -18 -2 -34 -11 -24 -16 -25 -90 -25 -63 0 -82 4 -94 18 -26
29 -9 48 47 51 28 1 52 4 53 6 6 6 77 -7 86 -16z m-256 -47 c7 -1 18 -15 23
-32 7 -17 15 -27 22 -23 6 3 33 5 61 4 41 -1 56 -7 77 -29 22 -24 33 -27 75
-25 65 3 99 -12 117 -50 14 -29 14 -32 -3 -44 -16 -11 -23 -11 -40 -1 -15 10
-25 10 -38 2 -9 -6 -26 -8 -37 -4 -11 4 -40 10 -65 13 l-45 6 29 -24 c35 -28
27 -45 -21 -45 -27 0 -36 -5 -41 -22 l-5 -22 -8 22 c-8 20 -15 22 -84 22 -61
0 -75 3 -75 15 0 9 10 19 23 24 12 5 33 21 46 35 18 19 28 23 37 15 18 -15 59
-7 59 11 0 14 -8 16 -94 19 -18 1 -22 5 -16 19 20 49 21 48 -62 45 -95 -4
-108 0 -93 26 19 37 77 52 158 43z m416 -18 c20 -8 20 -28 0 -44 -12 -11 -18
-10 -31 3 -9 8 -13 23 -10 31 7 17 16 19 41 10z m46 -85 c0 -5 -4 -9 -10 -9
-5 0 -10 7 -10 16 0 8 5 12 10 9 6 -3 10 -10 10 -16z m237 -111 c-3 -8 -6 -5
-6 6 -1 11 2 17 5 13 3 -3 4 -12 1 -19z m87 -10 c5 -22 3 -28 -10 -28 -11 0
-14 5 -10 16 3 9 6 23 6 31 0 22 6 14 14 -19z m176 -8 c0 -10 -5 -22 -10 -25
-13 -8 -24 20 -16 41 8 20 26 9 26 -16z m-434 -17 c-11 -11 -17 4 -9 23 7 18
8 18 11 1 2 -10 1 -21 -2 -24z m94 14 c0 -26 -9 -39 -20 -32 -10 6 0 55 11 55
5 0 9 -10 9 -23z m90 -1 c0 -3 -4 -8 -10 -11 -5 -3 -10 -1 -10 4 0 6 5 11 10
11 6 0 10 -2 10 -4z m165 -6 c3 -5 -3 -10 -15 -10 -12 0 -18 5 -15 10 3 6 10
10 15 10 5 0 12 -4 15 -10z m-45 -261 c0 -20 -15 -26 -25 -9 -9 15 3 43 15 35
5 -3 10 -15 10 -26z m114 5 c3 -8 2 -12 -4 -9 -6 3 -10 10 -10 16 0 14 7 11
14 -7z m-91 -145 c-5 -19 -7 -19 -15 -5 -10 18 -2 39 12 31 4 -3 6 -15 3 -26z
m-171 -14 c-2 -14 -9 -25 -14 -25 -6 0 -7 7 -4 16 3 9 6 22 6 30 0 9 4 13 9
10 4 -3 6 -17 3 -31z m-332 -15 c0 -5 -5 -10 -11 -10 -5 0 -7 5 -4 10 3 6 8
10 11 10 2 0 4 -4 4 -10z m170 0 c0 -5 -4 -10 -10 -10 -5 0 -10 5 -10 10 0 6
5 10 10 10 6 0 10 -4 10 -10z m250 -4 c0 -3 -4 -8 -10 -11 -5 -3 -10 -1 -10 4
0 6 5 11 10 11 6 0 10 -2 10 -4z m75 -6 c3 -5 1 -10 -4 -10 -6 0 -11 5 -11 10
0 6 2 10 4 10 3 0 8 -4 11 -10z m-245 -19 c0 -26 -16 -35 -24 -15 -10 25 -7
34 9 34 8 0 15 -9 15 -19z m-504 -18 c-10 -10 -19 5 -10 18 6 11 8 11 12 0 2
-7 1 -15 -2 -18z m-175 5 c0 -7 3 -26 5 -43 l5 -30 -26 29 c-14 16 -25 32 -25
36 0 21 39 28 41 8z m313 -41 c14 -22 -5 -41 -33 -32 -23 7 -27 25 -9 43 15
15 28 11 42 -11z m204 -224 c15 -11 28 -29 30 -41 3 -22 -29 -59 -65 -73 -23
-8 -32 -29 -13 -29 5 0 16 -10 25 -23 13 -21 13 -30 -9 -96 -13 -40 -28 -77
-33 -82 -13 -13 -122 -18 -150 -8 -28 11 -29 33 -2 88 27 56 20 71 -30 71 -22
0 -42 4 -45 9 -3 4 -16 6 -29 4 -18 -4 -30 -18 -46 -57 -11 -28 -21 -56 -21
-62 0 -6 -9 -20 -20 -32 -18 -19 -32 -22 -91 -22 -55 0 -71 3 -76 16 -6 16
135 312 165 347 14 16 33 17 199 14 165 -3 186 -5 211 -24z m-589 -382 c12 -8
12 -12 2 -25 -17 -21 -87 -22 -95 -1 -10 28 60 47 93 26z m342 -98 c21 -21 6
-57 -26 -64 -38 -8 -180 -11 -187 -3 -7 6 21 66 35 75 16 11 166 4 178 -8z"/>
<path d="M391 3961 c-8 -5 -11 -16 -8 -25 6 -14 10 -14 27 -4 20 13 22 29 4
35 -5 1 -15 -1 -23 -6z"/>
<path d="M450 3081 c-39 -5 -45 -9 -48 -32 -3 -25 0 -27 42 -31 84 -6 136 21
106 57 -13 16 -24 16 -100 6z"/>
<path d="M376 4796 c6 -17 34 -30 34 -16 0 5 -9 14 -20 20 -16 8 -18 8 -14 -4z"/>
<path d="M9408 4798 c-2 -7 -4 -22 -3 -33 1 -11 2 -31 3 -44 2 -19 5 -21 16
-12 17 14 21 8 31 -39 l8 -34 23 29 c29 36 34 65 7 44 -15 -13 -16 -12 -8 6 9
22 10 58 1 80 -7 18 -72 20 -78 3z"/>
<path d="M10161 4794 c0 -11 3 -14 6 -6 3 7 2 16 -1 19 -3 4 -6 -2 -5 -13z"/>
<path d="M9987 4793 c-4 -3 -7 -15 -7 -25 0 -13 8 -18 29 -18 24 0 29 4 29 25
0 19 -6 25 -23 25 -12 0 -25 -3 -28 -7z"/>
<path d="M10134 4736 c-2 -20 2 -23 22 -17 23 6 34 26 15 26 -5 0 -13 3 -17 8
-13 13 -19 8 -20 -17z"/>
<path d="M10020 4721 c0 -19 20 -22 36 -7 14 15 13 16 -10 16 -14 0 -26 -4
-26 -9z"/>
<path d="M9585 4705 c-3 -8 -7 -22 -10 -31 -10 -32 5 -61 32 -61 31 0 41 23
18 45 -13 13 -19 14 -22 5 -3 -7 -9 -13 -14 -13 -4 0 -6 7 -3 15 4 8 12 15 20
15 16 0 16 2 8 24 -8 20 -23 21 -29 1z"/>
<path d="M9806 4702 c-11 -11 -6 -42 7 -42 14 0 37 19 37 31 0 9 -37 18 -44
11z"/>
<path d="M9900 4691 c0 -12 6 -21 16 -21 9 0 14 7 12 17 -5 25 -28 28 -28 4z"/>
<path d="M9240 4692 c0 -8 26 -34 63 -61 15 -12 17 -12 12 2 -4 8 -2 18 4 22
16 9 13 28 -3 22 -7 -3 -19 0 -25 6 -13 13 -51 20 -51 9z"/>
<path d="M9358 4684 c-4 -3 -2 -18 4 -34 7 -20 6 -35 -2 -50 -7 -13 -8 -20 -2
-16 6 3 22 2 36 -4 21 -8 27 -6 36 9 7 14 6 22 -5 31 -9 8 -13 21 -9 36 5 17
2 24 -9 24 -8 0 -22 2 -29 5 -8 3 -17 3 -20 -1z"/>
<path d="M9699 4673 c-27 -7 -11 -43 18 -43 19 0 24 4 21 22 -3 23 -13 28 -39
21z"/>
<path d="M610 4616 c0 -2 8 -10 18 -17 15 -13 16 -12 3 4 -13 16 -21 21 -21
13z"/>
<path d="M10100 4559 c12 -16 24 -28 27 -26 7 7 -19 46 -35 52 -8 3 -4 -8 8
-26z"/>
<path d="M9270 4572 c0 -12 19 -26 26 -19 2 2 -2 10 -11 17 -9 8 -15 8 -15 2z"/>
<path d="M9947 4543 c-14 -13 -6 -33 13 -33 21 0 27 -14 11 -24 -5 -4 -21 -7
-35 -8 -14 -1 -26 -7 -27 -13 0 -5 -10 10 -21 35 -11 25 -22 39 -25 33 -3 -7
-10 -13 -16 -13 -21 0 -67 -68 -67 -98 0 -36 -7 -39 -107 -48 -43 -4 -83 -11
-90 -16 -7 -5 -43 -10 -82 -11 l-70 -2 -5 -35 c-2 -19 -4 -44 -4 -55 -1 -11
-3 -49 -6 -85 -12 -128 -15 -360 -5 -365 6 -4 5 -13 -1 -24 -7 -14 -4 -25 13
-44 12 -13 46 -52 75 -86 37 -42 60 -61 76 -61 27 0 51 -24 41 -41 -7 -10 169
-189 184 -189 11 1 216 315 225 346 6 19 3 20 -51 13 -32 -4 -84 -8 -115 -8
l-57 -1 2 -37 c2 -32 -1 -38 -18 -38 -14 0 -21 8 -25 30 -5 30 -6 30 -72 30
-36 0 -69 3 -73 7 -4 3 -22 0 -41 -8 -35 -15 -60 -11 -48 7 10 17 -5 58 -26
69 -17 9 -22 7 -30 -16 -8 -19 -7 -31 2 -43 6 -9 -3 -2 -21 16 -27 25 -32 36
-27 57 7 28 57 57 64 37 2 -6 12 -6 28 1 21 10 28 8 44 -8 11 -10 21 -35 23
-54 4 -35 29 -52 48 -33 13 13 -1 45 -17 39 -25 -10 -24 13 2 39 14 14 23 32
20 40 -3 8 -1 15 4 15 6 0 10 -4 10 -10 0 -16 46 -12 60 5 10 11 15 13 20 4 8
-12 22 -13 113 -8 61 3 87 -12 66 -37 -17 -20 0 -64 25 -64 11 0 26 4 31 8 13
9 16 62 3 62 -6 0 -8 6 -5 14 3 7 0 13 -6 12 -7 0 -13 4 -15 9 -2 6 14 10 35
11 57 1 101 13 107 29 8 22 9 567 1 588 -8 19 -31 23 -37 5 -6 -18 -59 -1 -56
18 3 18 -34 48 -45 37z m-22 -223 c-3 -5 -13 -10 -21 -10 -8 0 -14 5 -14 10 0
6 9 10 21 10 11 0 17 -4 14 -10z"/>
<path d="M8710 4509 c12 -40 15 -43 36 -35 13 5 15 9 6 18 -7 7 -12 20 -12 30
0 11 -7 18 -19 18 -17 0 -18 -4 -11 -31z"/>
<path d="M2131 4520 c0 -8 4 -22 9 -30 12 -18 12 -2 0 25 -6 13 -9 15 -9 5z"/>
<path d="M9727 4523 c-13 -12 -7 -18 17 -19 17 -1 23 2 19 12 -5 15 -25 19
-36 7z"/>
<path d="M10184 4503 c-17 -26 -19 -53 -20 -326 0 -164 3 -300 8 -303 4 -3 8
0 8 5 0 6 7 11 15 11 13 0 15 42 15 320 0 176 -2 320 -4 320 -2 0 -12 -12 -22
-27z"/>
<path d="M8788 4495 c-6 -29 -2 -35 24 -35 21 0 25 29 6 48 -18 18 -25 15 -30
-13z"/>
<path d="M779 4490 c13 -11 28 -20 33 -20 6 0 -1 9 -15 20 -33 26 -49 26 -18
0z"/>
<path d="M9220 4501 c0 -5 5 -13 10 -16 6 -3 10 -2 10 4 0 5 -4 13 -10 16 -5
3 -10 2 -10 -4z"/>
<path d="M8370 4473 c0 -13 5 -23 10 -23 13 0 13 11 0 30 -8 12 -10 11 -10 -7z"/>
<path d="M9515 4480 c4 -6 11 -8 16 -5 14 9 11 15 -7 15 -8 0 -12 -5 -9 -10z"/>
<path d="M9000 4470 l-25 -8 28 -1 c15 -1 27 -6 27 -13 0 -6 3 -8 7 -5 12 13
33 -15 33 -44 0 -34 17 -37 50 -11 21 17 22 21 9 50 -18 41 -65 53 -129 32z"/>
<path d="M9192 4431 c-17 -24 -20 -35 -13 -49 9 -15 10 -14 11 6 0 24 15 30
23 10 8 -23 13 -3 7 30 l-5 34 -23 -31z"/>
<path d="M9290 4451 c0 -3 12 -14 25 -24 25 -18 25 -18 25 5 0 17 -6 23 -25
24 -14 1 -25 -1 -25 -5z"/>
<path d="M8975 4400 c-8 -13 3 -50 15 -50 17 0 60 23 60 32 0 5 -4 7 -9 4 -5
-4 -11 -2 -13 3 -5 14 -46 23 -53 11z"/>
<path d="M956 4375 c4 -8 10 -12 15 -9 11 6 2 24 -11 24 -5 0 -7 -7 -4 -15z"/>
<path d="M8514 4342 c-6 -4 -14 -23 -18 -42 -3 -19 -3 -29 0 -22 4 9 9 10 19
2 9 -8 15 -8 20 0 9 15 23 12 21 -4 0 -8 4 -14 9 -13 14 3 8 32 -11 62 -17 27
-23 29 -40 17z"/>
<path d="M9225 4308 c-89 -20 -141 -30 -160 -30 -11 0 -54 -7 -95 -15 -41 -9
-101 -17 -132 -20 l-58 -4 0 32 0 33 -20 -22 c-11 -12 -19 -27 -18 -33 4 -15
-58 -37 -107 -38 -23 -1 -45 -5 -51 -11 -5 -5 -27 -10 -49 -12 -48 -3 -62 -18
-70 -80 l-7 -48 -40 6 c-35 6 -39 5 -36 -12 2 -15 -3 -18 -32 -16 -19 2 -43
-3 -54 -11 -18 -13 -18 -15 -1 -68 10 -30 19 -64 21 -77 1 -12 12 -38 23 -58
12 -19 21 -53 21 -74 0 -21 5 -42 10 -45 6 -3 10 -15 10 -26 0 -15 6 -19 31
-17 25 3 37 -4 62 -34 29 -36 30 -39 13 -57 -12 -13 -16 -32 -14 -62 l3 -44
37 3 c24 2 39 -2 45 -11 4 -8 19 -18 31 -22 20 -6 23 -4 20 11 -2 10 -14 21
-28 25 -16 4 -19 7 -7 8 38 2 7 41 -33 41 -15 0 -30 3 -33 7 -13 12 15 33 44
33 15 0 31 5 34 10 3 6 -4 10 -18 10 -18 0 -32 13 -56 51 -17 28 -31 52 -31
54 0 1 16 6 36 10 26 4 39 2 45 -7 6 -9 9 -7 9 9 0 22 32 48 44 36 12 -13 5
-23 -16 -24 -13 0 -17 -3 -10 -6 16 -6 16 -33 -1 -33 -16 0 -18 -32 -3 -42 6
-4 12 -37 13 -72 1 -74 1 -73 131 -167 74 -53 128 -93 171 -126 16 -13 34 -23
39 -23 10 0 66 69 115 140 9 14 33 45 52 70 76 99 127 175 166 245 l40 74 10
178 c5 98 13 219 18 268 4 50 6 93 4 98 -5 9 -67 7 -118 -5z m-535 -168 c0
-13 -20 -13 -40 0 -12 8 -9 10 13 10 15 0 27 -4 27 -10z m-204 -160 c18 -61
44 -176 50 -224 5 -33 3 -38 -11 -32 -9 3 -21 6 -26 6 -5 0 -9 8 -9 18 0 14 2
15 10 2 5 -8 12 -11 15 -8 14 14 -7 26 -58 32 l-53 7 -36 67 c-41 76 -59 134
-48 152 4 6 20 10 36 7 28 -4 28 -4 5 -12 -20 -7 -22 -13 -18 -41 9 -54 67
-164 87 -164 13 0 16 6 12 28 -4 19 -7 22 -10 10 -6 -32 -20 -19 -40 40 -11
31 -23 64 -26 73 -4 9 3 26 19 43 14 15 25 32 25 37 0 6 14 9 31 7 28 -3 34
-8 45 -48z m714 25 c7 -9 9 -22 5 -32 -5 -10 -7 -24 -6 -32 1 -7 -14 -31 -35
-52 l-38 -39 -21 20 c-22 20 -22 20 -40 0 -18 -20 -18 -19 -52 10 -18 17 -38
30 -43 30 -18 0 -10 49 9 59 10 6 21 8 24 4 4 -3 15 5 25 18 19 23 20 23 47 5
27 -18 28 -17 54 2 31 25 54 27 71 7z m-52 -227 c6 -1 12 -11 13 -22 0 -21 0
-21 11 1 14 29 105 38 114 11 7 -22 -2 -38 -21 -38 -8 0 -12 -6 -9 -14 8 -22
-12 -51 -35 -53 -12 -1 -21 1 -21 5 1 14 27 41 34 35 4 -4 4 0 1 9 -5 13 -14
16 -38 11 -34 -7 -49 -21 -40 -37 4 -6 8 -5 11 2 5 17 22 15 22 -3 0 -8 -7
-15 -16 -15 -12 0 -15 -9 -12 -37 2 -22 -2 -38 -10 -41 -7 -2 -12 6 -12 21 0
26 -22 52 -34 40 -4 -4 -4 1 0 12 4 11 12 23 17 26 12 9 0 29 -17 29 -7 0 -18
10 -23 23 -10 21 -11 20 -18 -15 -4 -21 -4 -45 -1 -55 8 -20 -10 -33 -46 -33
-21 0 -25 4 -21 20 3 11 12 20 19 20 8 0 14 5 14 11 0 6 -9 8 -20 4 -25 -8
-26 6 0 35 27 31 81 59 105 53 11 -2 26 -5 33 -5z m-258 -13 l50 7 15 -36 c9
-21 13 -41 10 -46 -3 -5 -1 -18 4 -28 9 -18 4 -20 -66 -30 -46 -6 -84 -7 -93
-2 -10 5 -21 5 -26 0 -5 -5 -34 -9 -64 -10 -74 -2 -80 -2 -80 10 0 5 7 7 15 4
10 -4 15 0 15 15 0 12 -6 21 -14 21 -7 0 -19 6 -26 14 -9 12 -7 17 9 28 12 7
21 18 21 24 0 7 10 9 25 6 17 -3 23 -8 17 -16 -16 -20 -22 -75 -10 -82 7 -4
14 -2 16 4 2 7 8 10 13 6 11 -6 24 24 15 34 -4 3 -11 0 -16 -8 -5 -8 -12 -12
-15 -8 -8 8 76 88 92 88 7 0 13 5 13 11 0 8 4 8 15 -1 10 -8 31 -10 65 -5z
m-462 -36 c-7 -4 -16 -3 -20 4 -11 18 2 29 18 16 12 -10 12 -14 2 -20z m567
11 c-3 -5 -10 -10 -16 -10 -5 0 -9 5 -9 10 0 6 7 10 16 10 8 0 12 -4 9 -10z"/>
<path d="M8430 4001 c0 -5 5 -13 10 -16 6 -3 10 -2 10 4 0 5 -4 13 -10 16 -5
3 -10 2 -10 -4z"/>
<path d="M8406 3910 c3 -25 10 -49 15 -54 14 -15 10 24 -7 64 l-14 35 6 -45z"/>
<path d="M8466 3918 c5 -8 2 -9 -9 -5 -11 4 -17 1 -17 -9 0 -21 34 -14 38 9 2
9 -2 17 -8 17 -6 0 -8 -5 -4 -12z"/>
<path d="M8486 3846 c3 -8 -2 -16 -13 -19 -12 -3 -10 -5 9 -6 21 -1 25 3 21
19 -3 11 -9 20 -14 20 -5 0 -6 -6 -3 -14z"/>
<path d="M8775 3703 c0 -37 17 -62 43 -63 20 0 14 39 -8 52 -11 7 -20 21 -20
30 0 10 -3 18 -7 18 -5 0 -8 -17 -8 -37z"/>
<path d="M8890 3701 c-23 -6 -26 -12 -21 -41 2 -18 40 -10 52 11 14 26 2 38
-31 30z"/>
<path d="M2073 4288 c-27 -19 -36 -38 -57 -113 -32 -112 -33 -151 -2 -70 13
33 28 72 34 87 8 20 8 28 -1 32 -7 2 -4 5 6 5 9 1 17 6 17 12 0 6 9 24 21 40
25 35 23 36 -18 7z"/>
<path d="M8698 4303 c7 -3 16 -2 19 1 4 3 -2 6 -13 5 -11 0 -14 -3 -6 -6z"/>
<path d="M1570 4289 c0 -5 5 -7 10 -4 6 3 10 8 10 11 0 2 -4 4 -10 4 -5 0 -10
-5 -10 -11z"/>
<path d="M6860 4220 c-6 -22 -15 -40 -21 -40 -6 0 -6 -7 1 -19 14 -27 13 -41
-5 -41 -9 0 -12 6 -8 17 5 12 2 15 -8 11 -8 -3 -23 0 -34 8 -41 30 -49 14 -12
-24 l38 -39 -15 -44 c-8 -24 -13 -45 -10 -48 2 -2 18 8 34 24 l30 29 33 -32
c35 -34 62 -45 33 -13 -9 10 -14 25 -11 33 3 8 -3 23 -15 33 -26 23 -26 39 0
25 15 -8 29 -6 61 10 22 12 39 23 37 25 -1 2 -23 4 -48 6 -54 4 -70 24 -62 81
6 50 -4 49 -18 -2z"/>
<path d="M1220 4213 c0 -5 11 -13 25 -20 29 -13 31 -11 9 11 -16 17 -34 21
-34 9z"/>
<path d="M1425 4190 c-3 -6 1 -7 9 -4 18 7 21 14 7 14 -6 0 -13 -4 -16 -10z"/>
<path d="M2056 4175 c-9 -26 -7 -32 5 -12 6 10 9 21 6 23 -2 3 -7 -2 -11 -11z"/>
<path d="M2010 4054 c-18 -42 -26 -74 -16 -63 7 7 46 109 41 109 -2 0 -13 -21
-25 -46z"/>
<path d="M1361 4043 c0 -4 4 -17 9 -28 8 -19 9 -19 9 2 1 12 -3 25 -9 28 -5 3
-10 3 -9 -2z"/>
<path d="M1325 4010 c-3 -5 -1 -10 4 -10 6 0 11 5 11 10 0 6 -2 10 -4 10 -3 0
-8 -4 -11 -10z"/>
<path d="M1873 3992 c-7 -4 -9 -13 -4 -21 6 -10 10 -9 15 5 8 20 4 25 -11 16z"/>
<path d="M6780 3864 c-81 -79 -127 -99 -225 -98 -54 1 -100 8 -140 23 -32 11
-60 21 -61 21 -1 0 -5 -11 -8 -25 -32 -127 -36 -421 -7 -540 54 -223 149 -400
299 -557 l54 -57 62 46 c250 192 436 472 481 727 15 89 20 251 9 294 -5 18
-11 21 -28 15 -11 -4 -48 -7 -82 -6 -107 3 -174 44 -245 148 -24 36 -46 65
-49 64 -3 -1 -30 -25 -60 -55z m104 -96 c27 -33 59 -58 104 -80 59 -29 76 -33
149 -33 l83 0 0 -60 c0 -174 -69 -377 -188 -559 -55 -82 -193 -230 -273 -291
l-57 -43 -29 31 c-151 163 -253 366 -289 571 -13 70 -15 129 -11 255 3 89 8
165 11 168 3 3 27 0 53 -6 26 -7 82 -12 124 -12 95 1 167 26 229 80 25 22 48
36 51 33 3 -4 23 -28 43 -54z"/>
<path d="M6791 3750 c-68 -58 -210 -88 -313 -67 l-66 14 -6 -45 c-3 -25 -6
-77 -6 -117 l0 -72 73 -6 c39 -4 142 -13 227 -21 85 -9 227 -17 314 -18 l160
-3 7 35 c4 19 11 67 14 105 l7 70 -52 -4 c-98 -6 -223 46 -280 119 -18 22 -35
40 -38 40 -4 -1 -22 -14 -41 -30z m-181 -125 c20 -24 -1 -39 -33 -24 -21 9
-30 9 -42 -1 -32 -27 -9 -84 32 -80 49 5 59 -13 19 -31 -35 -16 -73 -3 -91 31
-34 66 -5 120 64 120 23 0 44 -6 51 -15z m218 -22 c5 -10 14 -41 20 -68 6 -28
14 -58 17 -68 6 -13 2 -17 -18 -17 -16 0 -26 7 -30 20 -6 24 -55 28 -63 5 -7
-17 -44 -21 -44 -5 0 6 16 42 35 80 37 73 64 90 83 53z m207 -40 c4 -21 8 -42
9 -48 1 -5 9 10 17 35 12 38 19 46 42 48 l28 3 -7 -73 c-7 -82 -9 -88 -30 -88
-11 0 -13 12 -9 58 l5 57 -19 -55 c-23 -68 -51 -81 -52 -23 0 21 -4 47 -8 58
-7 16 -9 14 -14 -14 -4 -19 -7 -44 -7 -57 0 -27 -17 -32 -26 -9 -4 9 -3 45 1
80 6 63 7 65 35 65 26 0 30 -4 35 -37z"/>
<path d="M6786 3554 c-10 -25 -7 -34 9 -34 9 0 15 9 15 25 0 28 -15 34 -24 9z"/>
<path d="M6400 3402 c0 -54 28 -175 61 -267 32 -88 33 -89 40 -55 14 69 43
330 37 335 -3 3 -35 8 -72 12 l-66 6 0 -31z"/>
<path d="M6570 3400 c0 -6 -11 -98 -25 -206 l-26 -195 48 -79 c26 -44 51 -80
54 -80 7 0 21 88 49 310 34 274 33 247 8 254 -37 9 -108 7 -108 -4z"/>
<path d="M6726 3358 c-4 -24 -20 -149 -37 -278 -16 -129 -32 -244 -35 -255 -7
-30 47 -80 73 -67 45 24 52 45 77 222 29 204 50 399 45 404 -2 2 -30 7 -61 10
l-57 7 -5 -43z"/>
<path d="M6886 3379 c-3 -8 -19 -124 -36 -259 -17 -135 -33 -255 -36 -267 -11
-40 12 -25 78 52 l66 76 11 92 c6 51 18 140 25 200 l13 107 -36 0 c-20 0 -46
3 -58 6 -15 4 -24 1 -27 -7z"/>
<path d="M7016 3238 c-9 -79 -19 -161 -22 -183 -6 -38 -3 -36 50 50 53 85 116
226 116 260 0 12 -13 15 -63 15 l-63 0 -18 -142z"/>
<path d="M8102 3870 c0 -19 2 -27 5 -17 2 9 2 25 0 35 -3 9 -5 1 -5 -18z"/>
<path d="M8292 3875 c0 -16 2 -22 5 -12 2 9 2 23 0 30 -3 6 -5 -1 -5 -18z"/>
<path d="M1935 3871 c-6 -11 -55 -151 -55 -159 0 -2 6 1 14 7 8 7 20 35 26 64
7 29 17 60 22 70 10 20 4 35 -7 18z"/>
<path d="M10025 3813 c3 -77 10 -82 39 -33 17 30 17 31 -6 55 -13 14 -26 25
-29 25 -3 0 -5 -21 -4 -47z"/>
<path d="M10176 3853 c-10 -11 -7 -48 6 -61 18 -18 24 -15 24 16 0 28 -19 56
-30 45z"/>
<path d="M8301 3805 c1 -40 1 -40 11 -12 7 21 7 32 -1 40 -8 8 -11 0 -10 -28z"/>
<path d="M9803 3806 c-20 -43 -12 -70 19 -61 35 11 38 18 27 58 -12 46 -25 47
-46 3z"/>
<path d="M9685 3780 c-8 -37 0 -50 29 -50 34 0 46 17 34 51 -14 41 -54 41 -63
-1z"/>
<path d="M8317 3763 c-4 -3 -7 -21 -7 -40 0 -33 12 -43 26 -21 5 7 3 8 -6 3
-9 -6 -11 1 -8 29 2 20 3 36 3 36 -1 0 -5 -3 -8 -7z"/>
<path d="M10128 3732 c-24 -3 -68 -46 -68 -66 0 -4 -8 -19 -19 -34 -43 -62
-121 -183 -121 -188 0 -3 -11 -20 -25 -38 -14 -18 -25 -37 -25 -41 0 -5 -7
-16 -16 -26 -16 -18 -11 -44 7 -34 5 4 9 -3 9 -14 0 -12 -4 -21 -10 -21 -5 0
-10 5 -10 10 0 6 -4 10 -10 10 -5 0 -10 -17 -10 -37 0 -21 -4 -54 -9 -74 -16
-69 -3 -67 171 22 10 5 25 9 33 9 9 0 18 7 21 15 7 18 45 20 61 4 6 -6 17 -9
25 -6 8 3 4 8 -12 15 -23 9 -24 11 -6 18 11 4 28 16 38 26 10 10 27 18 38 18
19 0 20 7 20 190 l0 190 -27 28 c-21 21 -35 27 -55 24z m-81 -387 c37 -16 37
-16 17 -35 -17 -18 -24 -19 -53 -9 -30 11 -36 10 -47 -6 -8 -10 -17 -16 -21
-12 -3 4 2 15 11 26 13 14 14 21 6 26 -9 6 -9 10 1 16 20 13 45 11 86 -6z
m-117 -25 c0 -5 -4 -10 -10 -10 -5 0 -10 5 -10 10 0 6 5 10 10 10 6 0 10 -4
10 -10z m0 -26 c0 -8 -19 -13 -24 -6 -3 5 1 9 9 9 8 0 15 -2 15 -3z m-70 -48
c0 -8 -4 -18 -10 -21 -5 -3 -10 3 -10 14 0 12 5 21 10 21 6 0 10 -6 10 -14z"/>
<path d="M8321 3665 c-2 -53 40 -259 59 -291 12 -18 56 -64 98 -101 42 -37 93
-83 112 -100 19 -18 39 -33 44 -33 10 0 -134 136 -169 160 -40 27 -76 77 -69
97 5 14 4 15 -4 4 -9 -12 -12 -10 -16 10 -11 54 -12 89 -2 89 6 0 3 5 -7 11
-12 7 -18 21 -16 37 1 15 -1 34 -4 42 -4 8 -11 33 -16 55 -5 22 -9 31 -10 20z"/>
<path d="M9341 3667 c-25 -12 -119 -132 -120 -153 -1 -5 -14 -23 -31 -39 -16
-16 -30 -34 -30 -40 0 -7 -9 -20 -20 -30 -12 -11 -33 -41 -47 -67 -14 -26 -30
-48 -34 -48 -4 0 -11 -9 -14 -20 -4 -11 -18 -31 -32 -44 l-25 -24 32 3 c23 1
40 12 57 34 13 17 30 31 36 31 7 0 6 -4 -3 -10 -8 -5 -11 -12 -7 -17 10 -9 28
17 20 29 -12 21 17 33 71 30 41 -3 56 -8 56 -19 0 -19 19 -6 30 21 7 17 9 17
9 4 1 -21 12 -23 29 -5 18 17 62 16 62 -1 0 -8 6 -12 15 -8 9 3 15 0 15 -9 0
-21 3 -19 40 15 38 35 50 38 50 10 0 -23 15 -27 27 -6 4 7 21 15 36 18 27 5
28 4 22 -21 -4 -14 -11 -27 -16 -29 -5 -2 -9 -11 -9 -21 0 -9 -5 -22 -12 -29
-6 -6 -8 -15 -5 -19 9 -8 43 38 39 51 -3 9 50 -2 58 -12 7 -10 51 -34 55 -30
1 2 11 26 21 53 16 42 20 46 22 25 2 -13 -1 -26 -7 -28 -6 -2 -11 -11 -10 -20
0 -11 2 -12 6 -4 2 6 8 10 13 7 12 -7 21 52 11 78 -5 12 -39 51 -76 86 -65 63
-68 64 -79 43 -12 -22 -12 -22 -43 10 -22 24 -30 42 -30 66 0 29 -9 42 -64 93
-67 62 -79 66 -118 46z m299 -336 c0 -12 -20 -25 -27 -18 -7 7 6 27 18 27 5 0
9 -4 9 -9z m74 3 c14 -5 14 -8 -1 -30 -20 -32 -29 -30 -27 4 3 38 2 36 28 26z"/>
<path d="M1340 3631 c0 -11 4 -22 9 -25 4 -3 6 6 3 19 -5 30 -12 33 -12 6z"/>
<path d="M8088 3515 c-2 -52 -1 -95 1 -95 2 0 19 14 38 30 19 17 48 33 64 37
68 13 56 69 -22 102 -77 34 -77 34 -81 -74z"/>
<path d="M1790 3449 c0 -5 5 -7 10 -4 6 3 10 8 10 11 0 2 -4 4 -10 4 -5 0 -10
-5 -10 -11z"/>
<path d="M1317 3430 c3 -11 9 -20 14 -20 11 0 11 3 3 24 -9 23 -23 20 -17 -4z"/>
<path d="M8192 3428 c-17 -6 -48 -25 -68 -42 -32 -28 -38 -40 -45 -95 -5 -36
-7 -66 -5 -68 2 -2 17 9 34 25 16 15 49 36 72 47 47 21 51 19 72 -49 11 -34
10 -40 -7 -52 -29 -22 -44 -17 -66 21 -12 19 -24 35 -27 35 -8 0 -47 -85 -74
-160 -19 -54 -18 -143 2 -155 4 -2 24 29 44 70 l37 75 43 -6 c80 -11 136 21
136 79 0 32 -33 158 -60 230 -23 61 -28 64 -88 45z"/>
<path d="M8494 3421 c-28 -3 -58 -14 -68 -23 -16 -17 -16 -19 5 -48 25 -34 49
-44 79 -35 15 5 20 2 20 -14 0 -11 5 -23 10 -26 6 -4 8 -10 5 -15 -6 -10 42
-50 60 -50 7 0 15 -9 18 -21 8 -32 27 -13 27 27 0 29 -3 35 -18 32 -11 -2 -27
4 -37 12 -17 14 -18 13 -12 -3 5 -12 3 -17 -4 -15 -7 2 -13 17 -14 34 -2 27 0
30 26 28 16 -1 32 2 35 7 8 14 24 11 24 -4 0 -8 11 -24 25 -37 24 -23 35 -47
15 -35 -13 8 -13 -41 0 -65 9 -16 15 -17 42 -8 18 5 41 10 51 10 9 -1 17 2 17
6 0 4 14 13 32 21 l31 14 -29 24 c-16 12 -35 23 -41 23 -7 0 -13 5 -13 10 0 6
-5 10 -11 10 -6 0 -8 -7 -5 -16 5 -14 1 -15 -31 -9 -21 4 -40 8 -42 10 -7 7
11 25 20 20 5 -4 9 -2 9 4 0 6 8 8 18 4 27 -10 -14 33 -66 68 -51 34 -56 35
-42 10 14 -27 13 -41 -4 -35 -8 3 -12 12 -9 21 5 13 3 13 -15 4 -11 -6 -39
-11 -61 -11 -22 0 -43 -5 -46 -10 -4 -7 -13 -6 -26 1 -23 12 -22 50 1 57 12 4
13 2 3 -9 -7 -7 -13 -19 -13 -26 0 -16 36 -17 46 -2 3 6 17 8 31 4 22 -5 23
-4 13 15 -7 13 -7 20 0 20 5 0 10 -5 10 -12 0 -6 6 -4 13 7 8 10 19 15 25 11
6 -3 13 -2 17 4 4 6 -4 10 -19 10 -13 0 -30 2 -38 4 -7 1 -36 0 -64 -3z m31
-31 c3 -5 1 -10 -4 -10 -6 0 -11 5 -11 10 0 6 2 10 4 10 3 0 8 -4 11 -10z"/>
<path d="M8616 3273 c-6 -14 -5 -15 5 -6 7 7 10 15 7 18 -3 3 -9 -2 -12 -12z"/>
<path d="M9161 3263 c-13 -13 -20 -23 -14 -23 11 0 49 38 42 43 -2 2 -15 -7
-28 -20z"/>
<path d="M9486 3263 c-6 -14 -5 -15 5 -6 7 7 10 15 7 18 -3 3 -9 -2 -12 -12z"/>
<path d="M9527 3273 c-4 -3 -7 -11 -7 -17 0 -6 5 -5 12 2 6 6 9 14 7 17 -3 3
-9 2 -12 -2z"/>
<path d="M1300 3248 c0 -9 5 -20 10 -23 13 -8 13 5 0 25 -8 13 -10 13 -10 -2z"/>
<path d="M9237 3253 c-4 -3 -7 -11 -7 -17 0 -6 5 -5 12 2 6 6 9 14 7 17 -3 3
-9 2 -12 -2z"/>
<path d="M9373 3252 c-13 -2 -23 -10 -23 -18 0 -8 -4 -14 -10 -14 -5 0 -10 -4
-10 -10 0 -5 7 -7 15 -4 8 4 15 12 15 20 0 7 6 11 14 8 8 -3 17 0 21 6 9 15 5
17 -22 12z"/>
<path d="M9420 3224 c0 -8 5 -12 10 -9 6 3 10 10 10 16 0 5 -4 9 -10 9 -5 0
-10 -7 -10 -16z"/>
<path d="M9465 3230 c3 -5 8 -10 11 -10 2 0 4 5 4 10 0 6 -5 10 -11 10 -5 0
-7 -4 -4 -10z"/>
<path d="M9250 3224 c0 -10 31 -36 37 -31 3 3 -2 13 -10 22 -16 15 -27 19 -27
9z"/>
<path d="M10186 3215 c-3 -9 0 -15 9 -15 8 0 15 7 15 15 0 8 -4 15 -9 15 -5 0
-11 -7 -15 -15z"/>
<path d="M9450 3199 c0 -5 5 -7 10 -4 6 3 10 8 10 11 0 2 -4 4 -10 4 -5 0 -10
-5 -10 -11z"/>
<path d="M9730 3166 c0 -13 -5 -17 -19 -13 -13 3 -21 -1 -24 -15 -6 -23 -27
-15 -27 10 -1 14 -3 13 -13 -4 -35 -60 -56 -76 -92 -72 -33 4 -38 1 -63 -39
-21 -34 -32 -42 -48 -38 -12 3 -27 -2 -34 -10 -9 -11 -16 -12 -25 -5 -9 7 -16
6 -25 -5 -17 -20 -30 -19 -30 3 0 15 -2 15 -18 -4 -24 -29 -101 -76 -112 -69
-12 7 -70 -50 -70 -69 0 -9 -19 -16 -56 -21 -46 -5 -57 -11 -64 -31 -18 -46
11 -83 41 -53 11 11 33 22 49 25 16 4 31 12 34 20 3 8 12 14 21 14 8 0 15 5
15 10 0 6 8 10 19 10 10 0 24 6 30 14 6 7 31 21 56 30 24 10 82 37 127 62 46
24 90 47 98 50 8 3 31 14 51 25 20 10 44 19 53 19 9 0 16 3 16 8 0 8 91 52
108 52 14 0 24 78 13 98 -10 16 -10 15 -11 -2z"/>
<path d="M1275 3140 c-3 -5 -1 -10 4 -10 6 0 11 5 11 10 0 6 -2 10 -4 10 -3 0
-8 -4 -11 -10z"/>
<path d="M10177 3123 c-4 -3 -7 -11 -7 -17 0 -6 5 -5 12 2 6 6 9 14 7 17 -3 3
-9 2 -12 -2z"/>
<path d="M1293 3095 c0 -8 4 -15 9 -15 4 0 8 4 8 9 0 6 -4 12 -8 15 -5 3 -9
-1 -9 -9z"/>
<path d="M8350 3097 c0 -9 -28 -49 -62 -89 -61 -71 -80 -96 -133 -174 -29 -43
-30 -48 -11 -67 11 -10 50 -16 139 -19 110 -4 130 -8 171 -31 25 -14 46 -23
46 -19 0 4 -9 29 -19 57 -21 54 -63 91 -118 101 -18 3 -33 9 -33 13 0 3 11 23
25 43 42 62 46 82 28 135 -17 53 -33 77 -33 50z"/>
<path d="M9120 3099 c0 -5 5 -7 10 -4 6 3 10 8 10 11 0 2 -4 4 -10 4 -5 0 -10
-5 -10 -11z"/>
<path d="M8860 3090 c0 -5 5 -10 11 -10 5 0 7 5 4 10 -3 6 -8 10 -11 10 -2 0
-4 -4 -4 -10z"/>
<path d="M8820 3079 c0 -5 5 -7 10 -4 6 3 10 8 10 11 0 2 -4 4 -10 4 -5 0 -10
-5 -10 -11z"/>
<path d="M1280 3065 c0 -18 19 -40 26 -32 4 4 0 15 -9 24 -9 10 -17 13 -17 8z"/>
<path d="M1335 3001 c-7 -32 11 -71 32 -71 16 0 16 24 1 67 -15 41 -24 42 -33
4z"/>
<path d="M9055 3000 c-3 -5 -1 -10 4 -10 6 0 11 5 11 10 0 6 -2 10 -4 10 -3 0
-8 -4 -11 -10z"/>
<path d="M9030 2970 c0 -5 4 -10 9 -10 6 0 13 5 16 10 3 6 -1 10 -9 10 -9 0
-16 -4 -16 -10z"/>
<path d="M1275 2960 c-4 -6 -3 -16 3 -22 13 -13 23 4 13 21 -7 10 -10 10 -16
1z"/>
<path d="M1307 2919 c7 -7 15 -10 18 -7 3 3 -2 9 -12 12 -14 6 -15 5 -6 -5z"/>
<path d="M8766 2907 c3 -10 9 -15 12 -12 3 3 0 11 -7 18 -10 9 -11 8 -5 -6z"/>
<path d="M1390 2832 c0 -12 23 -32 37 -32 11 0 11 4 1 20 -13 20 -38 28 -38
12z"/>
<path d="M8780 2799 c0 -21 43 -130 48 -124 4 3 7 24 7 47 1 23 -1 36 -3 30
-7 -23 -21 -12 -28 23 -6 32 -24 50 -24 24z"/>
<path d="M8835 2799 c-4 -6 -5 -12 -2 -15 2 -3 7 2 10 11 7 17 1 20 -8 4z"/>
<path d="M1450 2797 c0 -2 9 -14 20 -27 14 -16 20 -18 20 -9 0 16 -19 39 -32
39 -4 0 -8 -2 -8 -3z"/>
<path d="M9701 2774 c0 -11 3 -14 6 -6 3 7 2 16 -1 19 -3 4 -6 -2 -5 -13z"/>
<path d="M9797 2756 c-5 -15 -6 -31 -3 -34 8 -8 18 25 14 45 -3 13 -6 10 -11
-11z"/>
<path d="M8926 2758 c-19 -64 -27 -110 -22 -123 3 -9 0 -31 -8 -49 -31 -74 34
-228 78 -184 7 8 15 20 18 28 4 12 7 11 13 -5 3 -11 10 -28 15 -37 6 -10 5
-29 -1 -48 -6 -17 -10 -32 -8 -34 2 -1 27 -18 54 -36 28 -19 58 -42 68 -50 9
-9 47 -34 82 -55 36 -21 65 -42 65 -46 0 -5 7 -9 15 -9 9 0 18 -7 21 -15 8
-21 43 -19 51 3 5 15 73 113 103 149 26 31 9 34 -289 47 -63 3 -118 9 -123 14
-10 10 -14 79 -5 88 3 3 23 6 43 6 21 0 49 4 62 9 15 6 29 6 36 0 6 -5 50 -12
96 -15 47 -3 126 -8 176 -12 l91 -7 39 63 c42 67 59 93 86 132 10 13 21 39 24
58 7 30 6 32 -8 19 -9 -8 -14 -17 -11 -21 2 -5 -2 -8 -9 -9 -57 -5 -75 -4 -85
4 -7 5 -20 4 -32 -2 -26 -14 -44 -14 -35 1 5 8 2 9 -12 2 -10 -5 -57 -10 -104
-11 -63 -1 -87 -5 -96 -17 -16 -22 -28 -20 -39 7 -9 21 -17 22 -122 25 -62 1
-113 7 -113 12 0 22 -31 -5 -39 -34 -9 -29 -10 -30 -16 -8 -4 12 -18 25 -30
28 -37 9 -45 54 -10 54 8 0 22 11 30 24 15 22 15 26 -2 45 -20 24 -42 27 -47
9z m282 -199 c30 -1 28 -22 -5 -40 -27 -15 -89 -17 -136 -5 -19 4 -27 13 -27
29 0 25 -5 24 168 16z m-178 -24 c0 -14 -6 -25 -13 -25 -8 0 -13 9 -11 23 3
28 2 27 14 27 6 0 10 -11 10 -25z m543 14 c75 3 83 -6 47 -52 -19 -23 -24 -25
-82 -20 -36 3 -68 11 -74 19 -13 16 -28 19 -19 4 3 -5 2 -10 -4 -10 -5 0 -13
5 -17 11 -3 6 -19 9 -36 7 -24 -4 -28 -2 -26 16 4 29 24 36 88 29 30 -3 85 -5
123 -4z m-3 -99 c0 -5 -5 -10 -11 -10 -5 0 -7 5 -4 10 3 6 8 10 11 10 2 0 4
-4 4 -10z m-200 -314 c0 -3 -4 -8 -10 -11 -5 -3 -10 -1 -10 4 0 6 5 11 10 11
6 0 10 -2 10 -4z"/>
<path d="M9964 2747 c-6 -7 -7 -21 -3 -32 4 -11 8 -15 9 -10 1 6 3 20 6 33 4
25 3 26 -12 9z"/>
<path d="M10056 2615 c-6 -17 -42 -20 -51 -5 -4 7 -13 6 -27 -1 -15 -8 -22 -8
-28 1 -6 9 -13 9 -30 -2 -16 -9 -24 -10 -27 -2 -4 12 -40 7 -60 -8 -7 -5 -14
-5 -18 2 -8 13 -25 13 -25 0 0 -19 49 -60 71 -60 12 0 30 -6 38 -14 21 -19
161 -29 167 -12 3 8 24 12 54 11 59 -3 82 11 74 42 -5 17 -16 24 -50 29 -24 3
-51 3 -60 0 -13 -5 -15 -2 -11 14 6 23 -8 27 -17 5z"/>
<path d="M9737 2542 c-10 -10 -17 -24 -17 -30 0 -7 -4 -12 -10 -12 -5 0 -10
-7 -10 -15 0 -9 -7 -18 -15 -21 -8 -4 -15 -11 -15 -17 0 -6 -12 -23 -26 -38
l-26 -27 49 -6 c26 -3 95 -8 153 -12 57 -3 108 -8 112 -10 3 -2 10 1 13 6 4 6
-5 21 -19 33 -15 12 -45 38 -67 58 -36 32 -47 36 -90 35 -27 -1 -49 2 -49 6 0
4 3 8 8 8 8 0 34 51 29 57 -2 2 -11 -5 -20 -15z"/>
<path d="M9900 2486 c28 -36 132 -131 146 -134 13 -3 19 10 15 31 -1 5 4 7 11
5 7 -3 13 -12 13 -21 0 -9 6 -22 13 -29 6 -6 12 -25 12 -40 0 -18 5 -28 15
-28 10 0 15 10 15 30 0 20 8 34 23 45 25 16 47 55 47 81 0 8 -4 12 -10 9 -5
-3 -10 -2 -10 4 0 6 -17 8 -41 5 -27 -3 -39 -1 -34 5 3 7 0 8 -9 5 -8 -3 -18
-14 -21 -23 -4 -14 -15 -18 -49 -16 -36 1 -54 9 -97 46 -30 24 -47 35 -39 25z"/>
<path d="M8389 2301 c-116 -46 -257 -126 -322 -183 l-49 -43 9 -50 c5 -28 5
-70 1 -95 -11 -71 16 -158 47 -147 7 3 10 -4 8 -22 -2 -14 0 -66 4 -116 7 -72
12 -89 23 -86 8 2 40 4 70 5 l54 2 13 69 c23 137 22 150 -17 170 -28 15 -32
14 -52 -5 -12 -11 -28 -20 -35 -20 -18 0 -63 30 -63 42 0 5 10 2 22 -6 39 -27
66 -20 85 22 10 20 18 39 20 41 1 2 23 -11 50 -29 52 -35 85 -34 107 4 6 11
19 29 29 40 38 45 44 52 71 87 19 26 42 42 76 53 55 18 84 21 58 6 -30 -18
-78 -71 -78 -87 0 -9 -8 -22 -17 -29 -16 -12 -16 -15 -3 -25 13 -9 12 -10 -3
-5 -19 6 -77 -47 -77 -71 0 -7 -9 -17 -20 -23 -11 -6 -20 -19 -20 -28 0 -10
-5 -23 -12 -30 -6 -6 -11 -33 -11 -59 0 -26 -4 -51 -9 -54 -5 -3 -10 -31 -11
-63 -1 -35 -8 -60 -16 -65 -8 -5 -14 -30 -15 -62 -1 -30 -6 -60 -10 -68 -5 -8
-10 -35 -11 -60 -1 -25 -5 -54 -9 -63 -4 -9 -8 -38 -9 -65 -1 -26 -6 -54 -11
-61 -4 -7 -6 -16 -3 -19 3 -3 1 -17 -4 -31 -7 -18 -6 -27 3 -33 10 -7 10 -12
1 -28 -11 -17 -8 -23 18 -45 16 -14 83 -51 147 -81 64 -31 125 -60 135 -66 40
-21 54 -28 89 -43 20 -9 40 -16 46 -16 5 0 22 -10 37 -22 l28 -22 36 40 c41
45 161 199 176 225 6 10 37 53 70 96 157 202 166 223 180 414 l7 95 -33 -2
c-19 -2 -86 -6 -149 -9 -63 -3 -164 -10 -225 -15 -60 -5 -162 -12 -225 -15
-63 -3 -143 -8 -178 -11 -52 -5 -63 -3 -68 11 -9 23 8 31 69 34 29 2 79 4 112
6 267 12 344 17 440 26 61 5 146 11 190 12 77 3 80 4 83 27 1 14 7 57 13 95 6
39 12 82 13 98 2 15 6 30 9 34 4 3 4 17 1 30 -4 13 -2 29 3 36 6 6 11 35 12
63 l2 51 -63 32 c-78 41 -127 73 -128 84 0 10 -26 37 -35 37 -6 0 -81 54 -112
80 -7 5 -18 10 -26 10 -28 0 -167 -49 -194 -68 -16 -11 -77 -36 -136 -56 -241
-81 -379 -146 -482 -228 l-49 -40 -8 27 c-12 48 -19 130 -11 141 36 48 263
181 433 252 14 6 21 11 15 11 -5 0 -53 -17 -106 -38z m550 -131 c-9 -5 -47
-17 -84 -27 -38 -10 -70 -24 -73 -32 -3 -9 0 -11 9 -6 8 5 11 4 6 -1 -5 -5
-21 -9 -35 -9 -15 -1 -38 -4 -52 -9 -14 -4 2 7 35 24 66 35 246 90 194 60z
m-4 -50 c3 -5 1 -10 -4 -10 -6 0 -11 5 -11 10 0 6 2 10 4 10 3 0 8 -4 11 -10z
m165 0 c0 -5 -4 -10 -10 -10 -5 0 -10 5 -10 10 0 6 5 10 10 10 6 0 10 -4 10
-10z m-421 -44 c-15 -13 -49 -25 -49 -17 0 5 8 12 18 14 24 6 36 8 31 3z
m-251 -99 c-25 -10 -33 -25 -29 -50 1 -5 -3 -6 -8 -2 -6 3 -8 12 -4 21 5 12 1
13 -20 3 -15 -7 -24 -16 -21 -20 3 -5 -1 -6 -9 -3 -21 8 -74 -15 -58 -25 8 -5
1 -8 -19 -7 -31 1 -31 1 -9 16 30 20 170 78 189 78 8 0 3 -5 -12 -11z m553
-42 c16 -4 30 -2 33 4 8 13 26 15 26 3 0 -5 -11 -14 -24 -22 -14 -7 -22 -18
-19 -26 6 -15 -22 -20 -31 -5 -7 10 -56 12 -56 1 0 -13 -121 -11 -137 2 -11 9
-19 9 -34 0 -20 -13 -24 -6 -10 17 17 27 65 39 146 36 44 -2 92 -6 106 -10z
m-408 -5 c-13 -5 -23 -14 -23 -20 0 -5 -4 -10 -10 -10 -5 0 -10 9 -10 20 0 16
6 20 33 19 29 0 30 -1 10 -9z m137 -8 c0 -14 -8 -19 -30 -19 -16 0 -30 6 -30
12 0 18 11 25 37 25 16 0 23 -6 23 -18z m426 3 c-16 -12 -18 -18 -8 -37 8 -15
9 -33 3 -53 -8 -29 -8 -29 -16 18 -7 45 -19 60 -27 35 -3 -9 -9 -8 -22 5 -17
16 -16 17 14 17 24 0 31 4 26 15 -4 11 2 15 22 15 26 -1 26 -1 8 -15z m-546
-15 c0 -5 -4 -10 -9 -10 -6 0 -13 5 -16 10 -3 6 1 10 9 10 9 0 16 -4 16 -10z
m636 -32 c-3 -18 -5 -35 -5 -38 -1 -3 -6 2 -11 10 -8 13 -10 13 -10 -2 0 -26
-27 -12 -44 23 -13 26 -13 29 3 29 9 0 22 -5 29 -12 9 -9 12 -8 12 5 0 9 7 17
15 17 11 0 14 -8 11 -32z m24 -8 c-5 -22 -8 -27 -9 -13 -1 21 9 56 14 51 2 -2
0 -19 -5 -38z m-343 -22 c-3 -8 -6 -5 -6 6 -1 11 2 17 5 13 3 -3 4 -12 1 -19z
m-287 -748 c0 -5 -2 -10 -4 -10 -3 0 -8 5 -11 10 -3 6 -1 10 4 10 6 0 11 -4
11 -10z"/>
<path d="M8824 1915 c30 -16 43 -14 31 4 -3 6 -18 11 -33 11 l-27 0 29 -15z"/>
<path d="M10020 2292 c0 -26 -5 -32 -35 -42 -19 -6 -43 -9 -52 -6 -10 3 -65 8
-123 11 -58 3 -140 8 -182 11 -76 6 -78 6 -89 -20 -7 -14 -16 -26 -20 -26 -4
0 -18 -20 -30 -45 -12 -25 -26 -45 -30 -45 -5 0 -16 -17 -25 -37 -10 -21 -24
-41 -31 -46 -6 -4 -10 -14 -7 -21 3 -8 1 -17 -5 -21 -6 -3 -11 -11 -11 -17 0
-6 6 -6 15 2 27 22 26 4 0 -22 -16 -16 -23 -32 -19 -42 3 -9 1 -23 -5 -30 -7
-8 -13 -34 -15 -58 -2 -23 -6 -50 -9 -58 -13 -36 -15 -78 -4 -90 9 -10 9 -14
0 -17 -7 -3 -13 -14 -13 -25 0 -14 5 -18 18 -14 19 5 150 14 312 21 116 4 238
12 316 21 l51 5 7 117 c4 64 11 136 17 160 5 23 14 85 19 136 5 51 12 100 16
109 4 10 -4 20 -23 29 -22 11 -28 20 -28 45 0 17 -3 35 -7 39 -5 4 -8 -7 -8
-24z m-600 -363 c0 -18 -2 -20 -15 -9 -13 11 -13 15 -3 21 18 12 18 12 18 -12z
m260 11 c0 -5 -2 -10 -4 -10 -3 0 -8 5 -11 10 -3 6 -1 10 4 10 6 0 11 -4 11
-10z m65 -10 c-3 -5 -10 -10 -16 -10 -5 0 -9 5 -9 10 0 6 7 10 16 10 8 0 12
-4 9 -10z m60 0 c3 -5 1 -10 -4 -10 -6 0 -11 5 -11 10 0 6 2 10 4 10 3 0 8 -4
11 -10z m-325 -57 c0 -12 8 -26 17 -32 10 -5 15 -13 11 -16 -4 -4 -16 2 -28
13 -15 14 -20 27 -15 41 4 13 2 21 -5 21 -6 0 -8 5 -4 11 9 15 24 -9 24 -38z
m120 20 c0 -10 -4 -14 -8 -8 -4 6 -11 13 -16 18 -5 4 -2 7 7 7 10 0 17 -8 17
-17z m83 -7 c3 -8 -2 -16 -14 -19 -21 -6 -22 -5 -13 17 8 20 20 21 27 2z m297
-7 c0 -5 -9 -9 -20 -9 -11 0 -20 6 -20 14 0 9 7 12 20 9 11 -3 20 -9 20 -14z
m-215 -37 c5 -21 10 -23 35 -18 34 6 40 -8 11 -24 -31 -16 -51 -12 -51 11 0
11 -4 18 -10 14 -5 -3 -7 -12 -4 -19 7 -19 -29 -26 -51 -10 -12 9 -23 10 -36
4 -24 -13 -29 -13 -29 5 0 23 -19 18 -30 -7 -7 -18 -9 -19 -9 -5 -1 9 -7 17
-15 17 -9 0 -12 7 -9 20 6 23 23 27 23 5 0 -8 5 -15 10 -15 6 0 10 10 10 23
l0 22 20 -25 c11 -14 20 -19 20 -12 0 9 7 11 19 7 13 -4 24 0 31 12 10 16 11
16 7 -4 -3 -15 0 -23 8 -23 16 0 30 33 16 38 -6 2 -11 10 -11 18 0 23 38 -6
45 -34z m252 -9 c-3 -10 -5 -2 -5 17 0 19 2 27 5 18 2 -10 2 -26 0 -35z m-187
27 c0 -5 -7 -10 -16 -10 -8 0 -12 5 -9 10 3 6 10 10 16 10 5 0 9 -4 9 -10z
m-417 -41 c-4 -15 -8 -17 -14 -8 -8 14 -3 29 11 29 4 0 6 -9 3 -21z m137 11
c0 -5 -4 -10 -10 -10 -5 0 -10 5 -10 10 0 6 5 10 10 10 6 0 10 -4 10 -10z
m330 -14 c0 -3 -4 -8 -10 -11 -5 -3 -10 -1 -10 4 0 6 5 11 10 11 6 0 10 -2 10
-4z m130 -34 c0 -14 -11 -21 -26 -15 -21 8 -17 23 6 23 11 0 20 -4 20 -8z"/>
<path d="M0 1772 l0 -517 35 -1 c19 0 33 1 31 4 -2 2 0 17 5 34 5 19 4 38 -2
50 -6 11 -7 27 -4 36 11 25 12 145 2 159 -5 7 -3 21 3 34 7 13 10 39 7 64 -4
24 -2 46 4 52 8 8 7 17 -1 33 -9 17 -9 29 0 51 7 16 10 45 7 63 -3 19 -2 37 1
41 12 12 10 298 -2 337 -8 30 -15 37 -29 32 -13 -4 -20 0 -24 14 -3 12 -11 23
-19 26 -12 5 -14 -72 -14 -512z"/>
<path d="M10162 2193 c-6 -27 -10 -57 -10 -68 0 -39 -10 -116 -16 -122 -3 -4
-6 -27 -6 -52 0 -25 -4 -62 -9 -82 -5 -21 -5 -43 0 -50 4 -7 5 -18 1 -24 -4
-5 -7 -35 -8 -65 l-1 -56 49 10 c46 9 48 12 48 43 0 26 -4 33 -20 33 -11 0
-20 5 -20 11 0 6 9 8 20 4 20 -6 20 -2 20 223 0 200 -2 231 -16 236 -9 3 -17
6 -19 6 -2 0 -8 -21 -13 -47z m-11 -316 c-10 -9 -11 -8 -5 6 3 10 9 15 12 12
3 -3 0 -11 -7 -18z"/>
<path d="M200 2219 c0 -5 5 -7 10 -4 6 3 10 8 10 11 0 2 -4 4 -10 4 -5 0 -10
-5 -10 -11z"/>
<path d="M221 2174 c0 -11 3 -14 6 -6 3 7 2 16 -1 19 -3 4 -6 -2 -5 -13z"/>
<path d="M201 2114 c0 -11 3 -14 6 -6 3 7 2 16 -1 19 -3 4 -6 -2 -5 -13z"/>
<path d="M201 2014 c0 -11 3 -14 6 -6 3 7 2 16 -1 19 -3 4 -6 -2 -5 -13z"/>
<path d="M4145 1927 c-59 -33 -100 -95 -121 -179 -14 -59 -18 -114 -17 -293 0
-178 -1 -208 -9 -157 -9 56 -12 63 -31 61 -44 -3 -50 0 -37 15 6 8 18 12 26 9
8 -3 14 0 14 6 0 6 -8 11 -17 11 -34 0 -123 65 -123 89 0 5 -9 7 -20 4 -12 -3
-20 -2 -19 3 1 5 0 20 -1 34 -2 21 -3 20 -10 -10 -17 -70 9 -420 40 -533 36
-131 92 -229 154 -266 24 -15 55 -20 133 -23 104 -4 149 3 97 16 -16 4 -44 23
-63 43 -26 27 -36 32 -43 21 -6 -9 -7 -6 -3 9 8 29 -4 51 -17 32 -7 -10 -8 -7
-4 11 7 32 -3 70 -18 70 -6 0 -11 15 -12 33 0 17 -6 59 -12 92 -34 180 -26
186 13 10 31 -139 47 -184 88 -243 34 -51 96 -82 162 -82 50 0 158 36 257 86
37 19 73 32 80 31 7 -2 10 -2 5 1 -4 2 10 16 30 31 58 42 149 138 167 175 41
87 28 194 -35 288 -22 31 -39 63 -39 70 0 10 2 10 9 0 6 -10 10 -7 15 11 3 14
9 33 13 43 4 11 3 15 -5 10 -8 -5 -8 1 0 25 14 39 4 169 -16 207 -56 107 -224
205 -424 248 -98 20 -160 18 -207 -9z m52 -312 c129 -41 203 -100 203 -164 0
-11 -9 -43 -20 -72 -20 -50 -20 -52 -3 -76 60 -85 64 -102 37 -156 -21 -41
-54 -70 -134 -117 -71 -41 -140 -66 -163 -57 -34 13 -77 390 -69 610 l2 57 34
0 c19 0 70 -11 113 -25z m-387 -255 c0 -5 -2 -10 -4 -10 -3 0 -8 5 -11 10 -3
6 -1 10 4 10 6 0 11 -4 11 -10z m315 -620 c3 -5 1 -10 -4 -10 -6 0 -11 5 -11
10 0 6 2 10 4 10 3 0 8 -4 11 -10z"/>
<path d="M180 1920 c0 -5 5 -10 11 -10 5 0 7 5 4 10 -3 6 -8 10 -11 10 -2 0
-4 -4 -4 -10z"/>
<path d="M6060 1871 c0 -20 -8 -35 -25 -48 -21 -15 -26 -29 -32 -87 -6 -63 -5
-68 13 -64 13 2 21 15 25 38 4 19 4 -14 1 -75 -2 -60 -8 -115 -13 -120 -4 -6
-11 -34 -15 -63 -6 -44 -4 -52 10 -52 13 0 16 -11 16 -55 l0 -55 43 0 c23 0
47 4 54 8 9 6 13 82 13 302 l1 295 -45 3 c-45 3 -46 2 -46 -27z"/>
<path d="M6310 1878 c-12 -27 -140 -545 -140 -565 0 -11 13 -13 52 -11 l52 3
14 55 c8 30 29 120 47 200 l34 145 1 -75 c1 -41 7 -129 14 -195 l11 -120 62
-3 c35 -2 71 2 81 7 15 8 28 48 56 163 21 84 54 208 74 276 30 104 34 125 21
133 -20 13 -62 11 -82 -3 -16 -13 -88 -253 -104 -347 -6 -35 -10 0 -18 154
l-10 200 -78 3 c-72 3 -78 1 -87 -20z"/>
<path d="M6832 1879 c-52 -26 -102 -83 -137 -156 -72 -153 -73 -354 0 -393 15
-8 49 -11 96 -8 158 8 241 89 300 295 34 119 23 183 -41 236 -59 50 -148 60
-218 26z m112 -115 c9 -8 16 -25 16 -37 0 -63 -66 -230 -104 -266 -12 -11 -36
-24 -54 -27 -27 -5 -33 -3 -43 19 -22 48 36 250 89 310 19 21 75 22 96 1z"/>
<path d="M3880 1860 c0 -5 5 -10 10 -10 6 0 10 5 10 10 0 6 -4 10 -10 10 -5 0
-10 -4 -10 -10z"/>
<path d="M3848 1823 c-39 -46 -65 -141 -35 -130 6 2 22 0 35 -4 13 -5 22 -5
22 2 0 5 -7 12 -15 15 -8 4 -15 14 -15 23 0 14 -2 14 -10 1 -9 -13 -10 -13 -9
0 1 20 17 58 18 42 1 -19 47 -62 67 -62 10 0 14 -5 10 -15 -7 -18 14 -55 30
-55 7 0 15 7 18 16 9 23 8 27 -8 21 -14 -6 -26 21 -25 53 0 10 3 8 8 -4 7 -19
8 -19 13 2 4 15 2 22 -8 22 -10 0 -13 7 -8 24 3 14 1 27 -7 31 -8 5 -10 4 -5
-4 4 -6 1 -23 -8 -36 -12 -18 -12 -25 -3 -28 9 -4 9 -6 0 -6 -7 -1 -22 8 -33
19 -11 11 -15 20 -10 20 6 0 10 7 10 16 0 11 -6 14 -20 9 -11 -4 -20 -2 -20 4
0 6 10 11 23 12 12 0 16 3 9 6 -6 2 -10 9 -6 14 9 15 -2 10 -18 -8z"/>
<path d="M3896 1815 c4 -8 8 -15 10 -15 2 0 4 7 4 15 0 8 -4 15 -10 15 -5 0
-7 -7 -4 -15z"/>
<path d="M5720 1796 l-145 -11 -27 -160 c-16 -88 -42 -238 -58 -334 -17 -96
-29 -176 -26 -178 2 -2 94 3 205 11 110 9 205 16 210 16 13 0 31 56 31 97 l0
34 -126 -7 -127 -7 7 49 c14 97 6 90 114 98 53 4 101 11 106 16 5 5 11 35 14
66 l5 56 -101 -7 -100 -7 12 63 11 64 65 7 c36 4 90 10 121 13 63 7 69 14 69
93 l0 42 -57 -1 c-32 -1 -123 -7 -203 -13z"/>
<path d="M3960 1769 c0 -5 5 -7 10 -4 6 3 10 8 10 11 0 2 -4 4 -10 4 -5 0 -10
-5 -10 -11z"/>
<path d="M5201 1755 c-68 -8 -126 -17 -129 -19 -5 -6 -93 -688 -89 -692 5 -6
284 47 328 61 84 28 158 133 159 223 0 48 -13 78 -44 103 l-21 17 29 23 c39
31 66 93 66 156 0 129 -60 155 -299 128z m127 -162 c4 -38 -21 -90 -45 -96
-10 -3 -36 -8 -57 -12 l-39 -6 7 33 c4 18 9 52 13 76 l6 43 56 -3 c55 -3 56
-4 59 -35z m-38 -248 c18 -22 5 -84 -22 -112 -15 -14 -41 -25 -72 -29 l-49 -7
7 54 c11 84 16 98 39 102 48 9 85 6 97 -8z"/>
<path d="M3965 1716 c-5 -11 -3 -21 5 -26 9 -5 11 -21 6 -53 -4 -25 -3 -48 2
-51 11 -6 22 50 22 109 0 26 -3 35 -9 26 -7 -11 -9 -11 -14 0 -3 10 -7 9 -12
-5z"/>
<path d="M10157 1640 c-16 -5 -36 -6 -44 -3 -13 5 -15 1 -9 -20 3 -14 1 -29
-4 -32 -13 -8 40 -76 81 -105 l29 -21 0 95 c0 103 0 102 -53 86z"/>
<path d="M181 1624 c0 -11 3 -14 6 -6 3 7 2 16 -1 19 -3 4 -6 -2 -5 -13z"/>
<path d="M9930 1629 c-47 -4 -148 -10 -225 -14 -77 -3 -183 -10 -235 -15 -52
-5 -108 -8 -123 -6 -22 3 -27 0 -22 -12 3 -8 0 -21 -6 -29 -7 -8 -13 -35 -13
-61 -1 -26 -4 -51 -7 -57 -4 -5 -5 -31 -4 -58 1 -26 -2 -50 -7 -53 -20 -13 56
-74 202 -164 179 -111 182 -112 195 -98 16 16 145 206 145 212 0 2 25 42 57
88 83 122 122 195 129 239 4 21 5 38 3 38 -2 -1 -42 -5 -89 -10z"/>
<path d="M5828 1613 c-45 -3 -58 -8 -58 -20 0 -13 8 -15 46 -9 26 3 62 6 80 6
24 0 34 5 34 15 0 9 -8 14 -22 13 -13 -1 -49 -3 -80 -5z"/>
<path d="M8094 1445 c3 -44 6 -177 6 -295 1 -209 1 -214 19 -193 18 21 34 104
47 233 3 36 10 81 15 100 5 20 11 56 14 80 3 24 10 62 15 84 17 72 17 71 -56
71 l-67 0 7 -80z"/>
<path d="M10030 1493 c-21 -41 -48 -84 -94 -154 -16 -24 -63 -96 -104 -159
-41 -63 -85 -126 -98 -140 -20 -22 -47 -105 -42 -127 1 -5 -1 -19 -4 -33 -4
-14 -11 -50 -17 -80 -68 -339 -86 -469 -68 -487 7 -6 64 -37 127 -68 63 -31
136 -67 162 -80 l47 -23 136 204 135 204 0 423 0 423 -50 38 c-28 21 -61 51
-74 67 -14 16 -27 29 -30 29 -3 0 -15 -17 -26 -37z"/>
<path d="M4833 1417 c-8 -28 -7 -40 8 -68 l19 -34 -2 57 c-1 71 -11 89 -25 45z"/>
<path d="M3454 1384 c3 -8 6 -20 6 -25 0 -5 5 -9 10 -9 6 0 10 7 10 15 0 8 5
15 12 15 18 0 0 13 -23 17 -16 2 -20 -1 -15 -13z"/>
<path d="M5922 1373 c-11 -20 -21 -23 -70 -23 -83 0 -132 -10 -132 -27 0 -12
18 -13 108 -7 59 3 108 8 110 9 2 2 2 18 0 37 -3 32 -3 32 -16 11z"/>
<path d="M3488 1285 c2 -14 6 -25 8 -25 2 0 4 11 4 25 0 14 -4 25 -9 25 -4 0
-6 -11 -3 -25z"/>
<path d="M9198 1207 c-24 -34 -51 -75 -62 -92 -10 -16 -22 -32 -26 -35 -10 -7
-74 -91 -104 -137 -13 -21 -33 -48 -45 -60 -12 -12 -21 -27 -21 -32 0 -6 -6
-14 -14 -18 -7 -4 -28 -29 -45 -54 -17 -25 -37 -52 -46 -59 -25 -20 -60 -108
-70 -175 -12 -72 -35 -189 -45 -225 -12 -46 -51 -246 -55 -287 l-3 -33 312 0
312 0 55 73 c56 74 84 114 146 205 36 54 62 141 63 213 0 31 38 246 69 389 15
71 14 140 -3 140 -7 0 -19 7 -26 15 -7 8 -24 21 -39 28 -24 13 -63 34 -121 69
-13 7 -31 18 -39 25 -9 7 -46 35 -83 62 l-68 50 -42 -62z"/>
<path d="M32 1232 l-32 -3 0 -140 0 -140 30 23 c17 12 30 27 30 34 0 6 6 16
13 22 9 7 12 29 9 64 -2 29 -5 72 -6 95 -1 24 -4 44 -7 46 -2 1 -19 1 -37 -1z"/>
<path d="M5935 1113 c-9 -28 -16 -30 -155 -37 -63 -4 -148 -9 -188 -12 l-73
-6 6 -42 c5 -42 16 -251 35 -661 6 -126 13 -258 16 -292 l6 -63 147 0 147 0
33 328 c32 308 52 732 38 787 -5 19 -5 19 -12 -2z"/>
<path d="M4867 968 c-13 -29 -39 -70 -58 -90 -64 -69 -231 -161 -387 -213 -81
-26 -89 -27 -266 -24 -153 4 -186 7 -209 22 -15 9 -27 14 -27 9 0 -14 71 -43
122 -49 35 -4 48 -10 48 -22 0 -9 6 -88 15 -176 8 -88 20 -220 26 -292 l11
-133 414 0 c267 0 414 4 414 10 0 24 -51 649 -64 787 -8 83 -12 168 -9 187 8
50 -1 45 -30 -16z"/>
<path d="M135 935 c-22 -8 -47 -22 -55 -32 -9 -10 -29 -25 -45 -33 l-30 -16
-3 -427 -2 -427 603 0 603 0 2 118 c8 353 6 377 -24 377 -10 1 -24 3 -29 7 -6
3 -25 9 -42 13 -18 3 -36 12 -40 19 -7 11 -39 21 -140 42 -13 2 -23 11 -23 20
0 11 -6 13 -20 9 -13 -4 -30 1 -47 14 -15 13 -34 19 -45 15 -10 -3 -30 4 -48
16 -16 12 -34 19 -39 15 -6 -3 -15 4 -21 15 -6 11 -14 19 -18 18 -13 -4 -102
24 -102 33 0 4 -10 9 -22 11 -13 2 -22 9 -20 17 2 9 -3 11 -13 7 -8 -3 -30 3
-48 14 -17 11 -40 20 -49 20 -12 0 -18 8 -18 21 0 16 -4 19 -20 14 -11 -3 -20
-2 -20 4 0 5 -13 12 -29 16 -16 3 -35 13 -42 21 -6 8 -18 14 -25 14 -8 0 -14
4 -14 9 0 8 -61 52 -71 51 -2 -1 -22 -7 -44 -15z m541 -897 c-10 -6 -20 -7
-24 -3 -9 8 20 25 31 18 5 -3 2 -10 -7 -15z"/>
<path d="M8161 915 c-17 -15 -31 -32 -31 -37 0 -6 -7 -16 -16 -22 -13 -10 -18
-48 -25 -212 -5 -109 -18 -286 -29 -392 -11 -106 -20 -206 -20 -222 l0 -30
269 0 c248 0 270 1 275 18 3 9 12 60 21 112 9 52 20 104 25 115 5 11 16 63 25
115 9 52 19 102 22 110 4 8 8 24 9 35 2 11 9 53 15 92 12 76 5 103 -28 103 -8
0 -28 9 -43 20 -16 11 -32 19 -37 18 -4 -1 -44 15 -88 36 -44 21 -100 47 -125
59 -25 11 -54 25 -65 31 -11 5 -35 18 -54 28 -18 9 -41 24 -51 33 -16 15 -20
14 -49 -10z"/>
<path d="M7575 771 c-110 -63 -124 -74 -163 -132 -46 -69 -70 -135 -79 -214
-5 -50 -5 -51 41 -93 63 -58 100 -58 182 2 58 42 75 67 88 126 6 32 -7 93 -28
125 l-16 24 -45 -25 c-43 -24 -44 -27 -30 -47 25 -36 19 -75 -19 -113 -41 -41
-60 -43 -82 -9 -36 56 8 160 85 200 25 14 91 51 146 83 84 49 101 63 103 86 4
33 -13 56 -42 56 -11 0 -75 -31 -141 -69z"/>
<path d="M3750 811 c0 -6 4 -13 10 -16 6 -3 7 1 4 9 -7 18 -14 21 -14 7z"/>
<path d="M3760 755 c0 -8 4 -15 10 -15 5 0 12 -11 16 -25 3 -14 10 -25 15 -25
5 0 9 -6 9 -14 0 -8 7 -21 15 -30 9 -8 14 -19 13 -23 -1 -4 4 -23 12 -40 15
-34 50 -46 50 -18 0 8 -5 15 -10 15 -6 0 -15 12 -21 28 -28 71 -64 133 -86
147 -21 14 -23 14 -23 0z"/>
<path d="M2558 703 c7 -3 16 -2 19 1 4 3 -2 6 -13 5 -11 0 -14 -3 -6 -6z"/>
<path d="M4278 693 c6 -2 18 -2 25 0 6 3 1 5 -13 5 -14 0 -19 -2 -12 -5z"/>
<path d="M10192 438 c-7 -7 -12 -16 -12 -21 0 -5 -22 -39 -49 -76 -27 -37 -56
-81 -64 -97 -9 -17 -22 -36 -31 -43 -8 -7 -18 -25 -21 -41 -3 -16 -12 -31 -20
-34 -15 -5 -42 -112 -31 -123 12 -13 126 18 186 50 l60 32 0 183 c0 100 -1
182 -3 182 -2 0 -8 -5 -15 -12z"/>
<path d="M1332 350 c0 -14 2 -19 5 -12 2 6 2 18 0 25 -3 6 -5 1 -5 -13z"/>
<path d="M7538 267 c-21 -12 -38 -25 -38 -29 0 -12 154 -118 171 -118 21 0 49
26 49 46 0 8 -10 22 -22 32 -12 9 -40 34 -63 55 -23 20 -46 37 -51 37 -5 -1
-26 -11 -46 -23z"/>
<path d="M9537 262 c-10 -10 -17 -22 -17 -27 0 -11 -58 -90 -92 -127 -16 -16
-28 -32 -28 -35 0 -4 -11 -21 -26 -40 l-25 -33 264 0 c215 0 266 3 270 14 3 7
8 33 12 57 l6 44 -63 28 c-129 59 -248 120 -248 129 0 15 -37 8 -53 -10z"/>
<path d="M2442 150 c0 -14 2 -19 5 -12 2 6 2 18 0 25 -3 6 -5 1 -5 -13z"/>
<path d="M2442 50 c0 -14 2 -19 5 -12 2 6 2 18 0 25 -3 6 -5 1 -5 -13z"/>
</g>
</svg>
